<?xml version="1.0" encoding="utf-8"?>
<!-- Generator: Adobe Illustrator 19.0.0, SVG Export Plug-In . SVG Version: 6.00 Build 0)  -->
<svg version="1.1" xmlns="http://www.w3.org/2000/svg" xmlns:xlink="http://www.w3.org/1999/xlink" x="0px" y="0px"
	 viewBox="0 0 180 180" style="enable-background:new 0 0 180 180;" xml:space="preserve">
<style type="text/css">
	.st0{fill:#FFFFFF;}
	.st1{fill:#F9ED76;stroke:#D7842E;stroke-width:2;stroke-miterlimit:10;}
	.st2{fill:none;stroke:#D7842E;stroke-width:2;stroke-miterlimit:10;}
	.st3{fill:#D7842E;}
	.st4{fill:#111111;}
</style>
<g id="bg">
	<circle id="XMLID_20_" class="st0" cx="90" cy="90" r="90"/>
</g>
<g id="illustration">
	<circle id="XMLID_18_" class="st1" cx="89.8" cy="73" r="22.2"/>
	<g id="XMLID_3_">
		<path id="XMLID_2_" class="st2" d="M91.3,57.5"/>
		<circle id="XMLID_4_" class="st3" cx="90.3" cy="73.9" r="2.2"/>
		<circle id="XMLID_5_" class="st3" cx="98.4" cy="73.7" r="2"/>
		<circle id="XMLID_6_" class="st3" cx="104.5" cy="74.3" r="1.3"/>
		<circle id="XMLID_7_" class="st3" cx="101.4" cy="84" r="1.6"/>
		<circle id="XMLID_8_" class="st3" cx="95" cy="85.5" r="2.2"/>
		<circle id="XMLID_9_" class="st3" cx="85.6" cy="87.1" r="2.2"/>
		<circle id="XMLID_10_" class="st3" cx="79.5" cy="78" r="2.2"/>
		<circle id="XMLID_11_" class="st3" cx="78.4" cy="71.9" r="1.3"/>
		<circle id="XMLID_12_" class="st3" cx="75.2" cy="65.6" r="1.3"/>
		<circle id="XMLID_13_" class="st3" cx="85.4" cy="69.3" r="1.3"/>
		<circle id="XMLID_14_" class="st3" cx="90.9" cy="64.8" r="1.7"/>
		<circle id="XMLID_15_" class="st3" cx="97.9" cy="68" r="1.5"/>
		<circle id="XMLID_16_" class="st3" cx="94.2" cy="59.4" r="1.1"/>
		<circle id="XMLID_17_" class="st3" cx="85" cy="58.6" r="1.9"/>
	</g>
</g>
<g id="text">
	<g id="XMLID_21_">
		<path id="XMLID_22_" class="st4" d="M29.2,114.8c0.1-0.7,0.1-1.2,0.1-1.6c-0.1-0.7-0.3-1.2-0.8-1.2c-0.5-0.1-1.1,0.2-1.6,0.7
			c-0.5,0.5-0.9,1.3-1.1,2.1c-0.3,1.3-0.5,2.3-0.4,3.1c0.1,1.1,0.3,1.8,0.7,2c0.9,0.7,1.8,0.7,2.6,0.2c0.5-0.3,1.3-1,2.2-2.1
			l1.8,1.5c-0.6,1.1-1.2,1.9-1.7,2.4c-0.7,0.7-1.5,1.2-2.5,1.5c-1.1,0.3-2.2,0.4-3.4,0.1c-1.2-0.3-2.1-0.9-2.7-2
			c-1.4-2.1-1.4-4.8-0.2-8.1c0.9-2.5,2.3-4,4.2-4.6c2-0.6,3.8-0.3,5.2,0.8c0.7,0.6,1.2,1.4,1.2,2.3c0.1,0.7,0.1,1.6-0.1,2.8
			L29.2,114.8z"/>
		<path id="XMLID_24_" class="st4" d="M41.4,108.8c3-0.1,4.8,1.2,5.6,3.9c0.3,1.4,0.4,2.9,0.2,4.6c-0.2,1.6-0.7,2.9-1.4,4.1
			c-0.9,1.3-2,2.1-3.4,2.5c-1.2,0.3-2.3,0.4-3.4,0.3c-1.7-0.2-2.9-0.9-3.8-2c-0.9-1.2-1.2-3.1-1-5.6c0.2-2.3,1-4.2,2.3-5.7
			C37.8,109.6,39.4,108.9,41.4,108.8z M40,121.4c0.9,0.3,1.7-0.2,2.3-1.3c0.3-0.6,0.6-1.8,0.7-3.5c0.1-1.1,0.1-2.1,0-3
			c-0.1-0.9-0.4-1.5-0.9-1.7c-1-0.5-1.9-0.2-2.5,0.7c-1,1.4-1.4,3.3-1.2,5.7C38.5,120.1,39,121.1,40,121.4z"/>
		<path id="XMLID_27_" class="st4" d="M55.8,108.8c3-0.1,4.8,1.2,5.6,3.9c0.3,1.4,0.4,2.9,0.2,4.6c-0.2,1.6-0.7,2.9-1.4,4.1
			c-0.9,1.3-2,2.1-3.4,2.5c-1.2,0.3-2.3,0.4-3.4,0.3c-1.7-0.2-2.9-0.9-3.8-2c-0.9-1.2-1.2-3.1-1-5.6c0.2-2.3,1-4.2,2.3-5.7
			C52.2,109.6,53.8,108.9,55.8,108.8z M54.4,121.4c0.9,0.3,1.7-0.2,2.3-1.3c0.3-0.6,0.6-1.8,0.7-3.5c0.1-1.1,0.1-2.1,0-3
			c-0.1-0.9-0.4-1.5-0.9-1.7c-1-0.5-1.9-0.2-2.5,0.7c-1,1.4-1.4,3.3-1.2,5.7C52.9,120.1,53.5,121.1,54.4,121.4z"/>
		<path id="XMLID_30_" class="st4" d="M67.9,124l-4.9-0.1l1.3-21.2l4.4,0.6l-0.8,9.5l7.1-7.3l2.4,3.3l-5.3,5.6l4.9,7.6l-3.5,2.3
			c-0.8-1.5-1.7-3-2.6-4.5c-1.1-1.6-2.1-3.1-3-4.6V124z"/>
		<path id="XMLID_32_" class="st4" d="M83.7,109.2L83.2,124h-4.7l0.9-14.9L83.7,109.2z M79.8,107.4c-0.5-0.5-0.7-1.1-0.7-1.8
			c0-0.9,0.2-1.7,0.7-2.1c0.5-0.5,1.1-0.7,1.9-0.7s1.4,0.2,1.8,0.6c0.5,0.5,0.7,1.2,0.7,2c0,0.8-0.2,1.5-0.7,1.9
			c-0.5,0.5-1.1,0.7-1.9,0.7S80.2,107.8,79.8,107.4z"/>
		<path id="XMLID_35_" class="st4" d="M89.3,117.9c-0.1,0.7-0.1,1.3,0.1,1.9s0.6,1,1.1,1.2c0.8,0.3,1.7,0.3,2.5-0.2
			c0.5-0.2,1.2-0.8,2-1.9l1.6,1.7c-1.2,1.7-2.4,2.8-3.8,3.3c-0.9,0.3-2,0.4-3.1,0.2c-1.2-0.2-2.2-0.7-2.8-1.4
			c-0.7-0.7-1.1-1.7-1.2-2.8c-0.2-1.4-0.2-2.6,0-3.7c0.5-2.7,1.5-4.6,2.8-5.8c0.9-0.8,2-1.3,3-1.5c1.6-0.3,2.9,0,4,0.7
			c1.4,0.9,2,2.3,2,4.2c0,1.3-0.2,2.5-0.6,3.8L89.3,117.9z M93.8,115.1c0.1-0.9,0.2-1.7,0.1-2.1c-0.1-0.8-0.3-1.3-0.8-1.5
			c-0.9-0.4-1.8,0-2.4,1.2c-0.3,0.5-0.5,1.3-0.8,2.5L93.8,115.1z"/>
		<path id="XMLID_38_" class="st4" d="M105.9,119.6c0.8,0.3,1.7,0.6,2.6,0.9c0.3,0.1,0.8,0.2,1.5,0.3c0.5,0.1,0.9-0.1,1-0.4
			c0.2-0.5,0.1-1-0.4-1.5c-0.5-0.3-0.9-0.7-1.4-1c-1.4-1-2.3-2.2-2.5-3.6c-0.3-1.6,0-3,1.1-4.1c0.7-0.7,1.8-1.2,3.3-1.4
			c1.2-0.2,2.3-0.2,3.4,0.1c1.4,0.3,2.2,1.1,2.5,2.2c0.2,0.7,0.2,1.5-0.1,2.5l-3.8-0.1c0.1-1.6-0.4-2.3-1.3-2.3
			c-0.8,0-1.3,0.6-1.3,1.8c-0.1,0.7,0.5,1.5,1.6,2.3c1.2,0.8,2,1.5,2.4,2c1.2,1.3,1.5,2.7,1,4.3c-0.3,0.9-1.1,1.5-2.3,1.9
			c-0.8,0.3-1.8,0.4-2.8,0.4c-1.3,0-3.1-0.2-5.4-0.7L105.9,119.6z"/>
		<path id="XMLID_40_" class="st4" d="M123.1,123.9l-4.6,0.2l1-10.9l0.9-10.3l4,0.2l-0.8,7.3c1.6-1.1,3.1-1.5,4.4-1.3
			c1,0.1,1.8,0.6,2.4,1.5c0.7,0.9,1,2,1,3.3l0.2,10l-4.4-0.1l0.2-6.3c0.1-1.7,0.1-2.7,0-3c-0.2-0.9-0.5-1.5-1-1.6
			c-0.7-0.2-1.4,0.2-2,1.3c-0.3,0.4-0.5,1-0.8,1.8c-0.3,0.8-0.4,1.7-0.5,2.7V123.9z"/>
		<path id="XMLID_42_" class="st4" d="M140.1,108.8c3-0.1,4.8,1.2,5.6,3.9c0.3,1.4,0.4,2.9,0.2,4.6c-0.2,1.6-0.7,2.9-1.4,4.1
			c-0.9,1.3-2,2.1-3.4,2.5c-1.2,0.3-2.3,0.4-3.4,0.3c-1.7-0.2-2.9-0.9-3.8-2c-0.9-1.2-1.2-3.1-1-5.6c0.2-2.3,1-4.2,2.3-5.7
			C136.5,109.6,138.1,108.9,140.1,108.8z M138.7,121.4c0.9,0.3,1.7-0.2,2.3-1.3c0.3-0.6,0.6-1.8,0.7-3.5c0.1-1.1,0.1-2.1,0-3
			c-0.1-0.9-0.4-1.5-0.9-1.7c-1-0.5-1.9-0.2-2.5,0.7c-1,1.4-1.4,3.3-1.2,5.7C137.2,120.1,137.7,121.1,138.7,121.4z"/>
		<path id="XMLID_45_" class="st4" d="M151.7,127h-4.4l2.2-18.2l4.1,0.1l-0.2,1.8c1.1-1.2,2-1.8,2.8-1.9c0.9-0.1,1.9,0.2,2.9,0.9
			c0.9,0.7,1.5,1.6,1.8,2.7c0.4,1.4,0.4,2.9,0,4.7c-0.4,1.7-1.1,3.1-2,4.3c-1.3,1.6-2.6,2.3-4.1,2.3c-0.9,0-1.9-0.3-2.9-1L151.7,127
			z M152.2,118.5c-0.1,0.7,0.1,1.3,0.6,1.5c0.5,0.3,0.9,0.3,1.4,0.1c0.7-0.3,1.3-1,1.8-2.1c0.7-1.4,1-2.8,1-4.1
			c0-0.9-0.1-1.5-0.4-1.7c-0.3-0.2-0.7-0.2-1.2,0.1c-0.8,0.5-1.5,1.3-2.1,2.5S152.3,117.2,152.2,118.5z"/>
	</g>
</g>
</svg>
