<svg xmlns="http://www.w3.org/2000/svg" viewBox="0 0 241.2 44.9">
  <defs>
    <style>
      .cls-1, .cls-10, .cls-11, .cls-12, .cls-13, .cls-14, .cls-15, .cls-16, .cls-17, .cls-18, .cls-19, .cls-2, .cls-20, .cls-21, .cls-22, .cls-23, .cls-24, .cls-25, .cls-26, .cls-27, .cls-28, .cls-3, .cls-4, .cls-5, .cls-6, .cls-7, .cls-8, .cls-9 {
        fill: none;
        stroke-linecap: round;
        stroke-linejoin: round;
      }

      .cls-1 {
        stroke: #c1272d;
        stroke-width: 6px;
      }

      .cls-10, .cls-11, .cls-12, .cls-13, .cls-14, .cls-15, .cls-16, .cls-17, .cls-18, .cls-19, .cls-2, .cls-20, .cls-21, .cls-22, .cls-23, .cls-24, .cls-25, .cls-26, .cls-27, .cls-28, .cls-3, .cls-4, .cls-5, .cls-6, .cls-7, .cls-8, .cls-9 {
        stroke: #ff0;
        stroke-width: 3px;
      }

      .cls-3 {
        stroke-dasharray: 3.52 3.52;
      }

      .cls-4 {
        stroke-dasharray: 3.85 3.85;
      }

      .cls-5 {
        stroke-dasharray: 3.89 3.89;
      }

      .cls-6 {
        stroke-dasharray: 2.93 2.93;
      }

      .cls-7 {
        stroke-dasharray: 3.59 3.59;
      }

      .cls-8 {
        stroke-dasharray: 3.44 3.44;
      }

      .cls-9 {
        stroke-dasharray: 2.8 2.8;
      }

      .cls-10 {
        stroke-dasharray: 2.58 2.58;
      }

      .cls-11 {
        stroke-dasharray: 3.05 3.05;
      }

      .cls-12 {
        stroke-dasharray: 4 4;
      }

      .cls-13 {
        stroke-dasharray: 2.38 2.38;
      }

      .cls-14 {
        stroke-dasharray: 3.99 3.99;
      }

      .cls-15 {
        stroke-dasharray: 4.07 4.07;
      }

      .cls-16 {
        stroke-dasharray: 4.07 4.07;
      }

      .cls-17 {
        stroke-dasharray: 3.85 3.85;
      }

      .cls-18 {
        stroke-dasharray: 4.48 4.48;
      }

      .cls-19 {
        stroke-dasharray: 3.93 3.93;
      }

      .cls-20 {
        stroke-dasharray: 2.3 2.3;
      }

      .cls-21 {
        stroke-dasharray: 3.65 3.65;
      }

      .cls-22 {
        stroke-dasharray: 3.26 3.26;
      }

      .cls-23 {
        stroke-dasharray: 3.18 3.18;
      }

      .cls-24 {
        stroke-dasharray: 3.68 3.68;
      }

      .cls-25 {
        stroke-dasharray: 3.79 3.79;
      }

      .cls-26 {
        stroke-dasharray: 3.66 3.66;
      }

      .cls-27 {
        stroke-dasharray: 2.15 2.15;
      }

      .cls-28 {
        stroke-dasharray: 3.73 3.73;
      }

      .cls-29 {
        fill: #c1272d;
      }
    </style>
  </defs>
  <title>アセット 6</title>
  <g id="レイヤー_2" data-name="レイヤー 2">
    <g id="leather">
      <g>
        <g>
          <path d="M28.2,47H6.6V8.3h8.8V39.5H28.2Z" transform="translate(-3.6 -5.1)"/>
          <path d="M59.9,47H38V8.3H59.2v7.4H46.8v7.7H58.5v7.2H46.8v9H59.9Z" transform="translate(-3.6 -5.1)"/>
          <path d="M98.9,47H89.8l-2.3-9H78.6l-2.1,9H67.6L77.8,8.3H89ZM86.5,31.3l-1.7-7.7-1.7-8.1H83c-.5,2.3-1.1,5.9-1.6,8.1l-1.7,7.7Z" transform="translate(-3.6 -5.1)"/>
          <path d="M132.2,16h-8.8V47h-8.8V16h-8.8V8.3h26.4Z" transform="translate(-3.6 -5.1)"/>
          <path d="M170.1,47h-8.8V31.2H150.4V47h-8.9V8.3h8.9v15h10.9V8.3h8.8Z" transform="translate(-3.6 -5.1)"/>
          <path d="M204.1,47h-22V8.3h21.3v7.4H191v7.7h11.7v7.2H191v9h13.1Z" transform="translate(-3.6 -5.1)"/>
          <path d="M234,28.9c2.7,1.1,4,3.6,4.9,7.3s2.1,9.3,2.9,10.8h-9.1a54,54,0,0,1-2.4-9.1c-.8-4.7-2.2-6-5.1-6h-1.7V47h-8.8V8.9a61.5,61.5,0,0,1,10.5-.8c5.1,0,15.2.5,15.2,11.1a10,10,0,0,1-6.4,9.5Zm-8.2-3.5c3.7,0,5.8-2.3,5.8-5.4s-3.2-5.3-5.3-5.3a8.5,8.5,0,0,0-2.8.3V25.4Z" transform="translate(-3.6 -5.1)"/>
        </g>
        <g>
          <path class="cls-1" d="M28.2,47H6.6V8.3h8.8V39.5H28.2Z" transform="translate(-3.6 -5.1)"/>
          <path class="cls-1" d="M59.9,47H38V8.3H59.2v7.4H46.8v7.7H58.5v7.2H46.8v9H59.9Z" transform="translate(-3.6 -5.1)"/>
          <path class="cls-1" d="M98.9,47H89.8l-2.3-9H78.6l-2.1,9H67.6L77.8,8.3H89ZM86.5,31.3l-1.7-7.7-1.7-8.1H83c-.5,2.3-1.1,5.9-1.6,8.1l-1.7,7.7Z" transform="translate(-3.6 -5.1)"/>
          <path class="cls-1" d="M132.2,16h-8.8V47h-8.8V16h-8.8V8.3h26.4Z" transform="translate(-3.6 -5.1)"/>
          <path class="cls-1" d="M170.1,47h-8.8V31.2H150.4V47h-8.9V8.3h8.9v15h10.9V8.3h8.8Z" transform="translate(-3.6 -5.1)"/>
          <path class="cls-1" d="M204.1,47h-22V8.3h21.3v7.4H191v7.7h11.7v7.2H191v9h13.1Z" transform="translate(-3.6 -5.1)"/>
          <path class="cls-1" d="M234,28.9c2.7,1.1,4,3.6,4.9,7.3s2.1,9.3,2.9,10.8h-9.1a54,54,0,0,1-2.4-9.1c-.8-4.7-2.2-6-5.1-6h-1.7V47h-8.8V8.9a61.5,61.5,0,0,1,10.5-.8c5.1,0,15.2.5,15.2,11.1a10,10,0,0,1-6.4,9.5Zm-8.2-3.5c3.7,0,5.8-2.3,5.8-5.4s-3.2-5.3-5.3-5.3a8.5,8.5,0,0,0-2.8.3V25.4Z" transform="translate(-3.6 -5.1)"/>
        </g>
        <g>
          <g>
            <polyline class="cls-2" points="24.6 39.9 24.6 41.9 22.6 41.9"/>
            <line class="cls-3" x1="19.1" y1="41.9" x2="6.8" y2="41.9"/>
            <polyline class="cls-2" points="5 41.9 3 41.9 3 39.9"/>
            <line class="cls-4" x1="3" y1="36.1" x2="3" y2="7.2"/>
            <polyline class="cls-2" points="3 5.3 3 3.3 5 3.3"/>
            <polyline class="cls-2" points="9.8 3.3 11.8 3.3 11.8 5.3"/>
            <line class="cls-5" x1="11.8" y1="9.1" x2="11.8" y2="30.5"/>
            <polyline class="cls-2" points="11.8 32.5 11.8 34.5 13.8 34.5"/>
            <line class="cls-6" x1="16.7" y1="34.5" x2="21.1" y2="34.5"/>
            <polyline class="cls-2" points="22.6 34.5 24.6 34.5 24.6 36.5"/>
          </g>
          <g>
            <polyline class="cls-2" points="56.4 39.9 56.4 41.9 54.4 41.9"/>
            <line class="cls-7" x1="50.8" y1="41.9" x2="38.2" y2="41.9"/>
            <polyline class="cls-2" points="36.4 41.9 34.4 41.9 34.4 39.9"/>
            <line class="cls-4" x1="34.4" y1="36.1" x2="34.4" y2="7.2"/>
            <polyline class="cls-2" points="34.4 5.3 34.4 3.3 36.4 3.3"/>
            <line class="cls-8" x1="39.8" y1="3.3" x2="51.9" y2="3.3"/>
            <polyline class="cls-2" points="53.6 3.3 55.6 3.3 55.6 5.3"/>
            <polyline class="cls-2" points="55.6 8.6 55.6 10.6 53.6 10.6"/>
            <line class="cls-9" x1="50.8" y1="10.6" x2="46.6" y2="10.6"/>
            <polyline class="cls-2" points="45.2 10.6 43.2 10.6 43.2 12.6"/>
            <polyline class="cls-2" points="43.2 16.4 43.2 18.4 45.2 18.4"/>
            <line class="cls-10" x1="47.8" y1="18.4" x2="51.7" y2="18.4"/>
            <polyline class="cls-2" points="53 18.4 55 18.4 55 20.4"/>
            <polyline class="cls-2" points="55 23.6 55 25.6 53 25.6"/>
            <line class="cls-10" x1="50.4" y1="25.6" x2="46.5" y2="25.6"/>
            <polyline class="cls-2" points="45.2 25.6 43.2 25.6 43.2 27.6"/>
            <polyline class="cls-2" points="43.2 32.6 43.2 34.6 45.2 34.6"/>
            <line class="cls-11" x1="48.3" y1="34.6" x2="52.8" y2="34.6"/>
            <polyline class="cls-2" points="54.4 34.6 56.4 34.6 56.4 36.6"/>
          </g>
          <g>
            <g>
              <polyline class="cls-2" points="94.8 40 95.3 41.9 93.3 41.9"/>
              <polyline class="cls-2" points="88.2 41.9 86.2 41.9 85.7 40"/>
              <polyline class="cls-2" points="84.4 34.8 84 32.9 82 32.9"/>
              <polyline class="cls-2" points="77 32.9 75 32.9 74.6 34.8"/>
              <polyline class="cls-2" points="73.4 40 73 41.9 71 41.9"/>
              <polyline class="cls-2" points="66 41.9 64 41.9 64.6 40"/>
              <line class="cls-12" x1="65.6" y1="36.1" x2="73.2" y2="7.1"/>
              <polyline class="cls-2" points="73.7 5.2 74.3 3.3 76.3 3.3"/>
              <line class="cls-13" x1="78.6" y1="3.3" x2="82.2" y2="3.3"/>
              <polyline class="cls-2" points="83.4 3.3 85.4 3.3 85.9 5.2"/>
              <line class="cls-14" x1="86.9" y1="9.1" x2="94.3" y2="38"/>
            </g>
            <g>
              <polyline class="cls-2" points="80.9 26.3 82.9 26.3 82.5 24.3"/>
              <path class="cls-15" d="M85.2,25.4l-.4-1.8c-.3-1.2-.6-2.7-.9-4.1" transform="translate(-3.6 -5.1)"/>
              <path class="cls-2" d="M83.5,17.5c-.1-.7-.3-1.4-.4-2H83c-.1.6-.3,1.3-.4,2" transform="translate(-3.6 -5.1)"/>
              <path class="cls-16" d="M81.8,21.5c-.1.7-.3,1.5-.4,2.1l-.9,3.8" transform="translate(-3.6 -5.1)"/>
              <polyline class="cls-2" points="76.5 24.3 76.1 26.3 78.1 26.3"/>
            </g>
          </g>
          <g>
            <polyline class="cls-2" points="128.7 8.9 128.7 10.9 126.7 10.9"/>
            <polyline class="cls-2" points="121.8 10.9 119.8 10.9 119.8 12.9"/>
            <line class="cls-17" x1="119.8" y1="16.8" x2="119.8" y2="38"/>
            <polyline class="cls-2" points="119.8 39.9 119.8 41.9 117.8 41.9"/>
            <polyline class="cls-2" points="113 41.9 111 41.9 111 39.9"/>
            <line class="cls-17" x1="111" y1="36.1" x2="111" y2="14.9"/>
            <polyline class="cls-2" points="111 12.9 111 10.9 109 10.9"/>
            <polyline class="cls-2" points="104.2 10.9 102.2 10.9 102.2 8.9"/>
            <polyline class="cls-2" points="102.2 5.3 102.2 3.3 104.2 3.3"/>
            <line class="cls-18" x1="108.7" y1="3.3" x2="124.4" y2="3.3"/>
            <polyline class="cls-2" points="126.7 3.3 128.7 3.3 128.7 5.3"/>
          </g>
          <g>
            <polyline class="cls-2" points="166.5 39.9 166.5 41.9 164.5 41.9"/>
            <polyline class="cls-2" points="159.7 41.9 157.7 41.9 157.7 39.9"/>
            <line class="cls-19" x1="157.7" y1="36" x2="157.7" y2="30.1"/>
            <polyline class="cls-2" points="157.7 28.1 157.7 26.1 155.7 26.1"/>
            <line class="cls-20" x1="153.4" y1="26.1" x2="149.9" y2="26.1"/>
            <polyline class="cls-2" points="148.8 26.1 146.8 26.1 146.8 28.1"/>
            <line class="cls-19" x1="146.8" y1="32" x2="146.8" y2="37.9"/>
            <polyline class="cls-2" points="146.8 39.9 146.8 41.9 144.8 41.9"/>
            <polyline class="cls-2" points="140 41.9 138 41.9 138 39.9"/>
            <line class="cls-4" x1="138" y1="36.1" x2="138" y2="7.2"/>
            <polyline class="cls-2" points="138 5.3 138 3.3 140 3.3"/>
            <polyline class="cls-2" points="144.8 3.3 146.8 3.3 146.8 5.3"/>
            <line class="cls-21" x1="146.8" y1="8.9" x2="146.8" y2="14.4"/>
            <polyline class="cls-2" points="146.8 16.2 146.8 18.2 148.8 18.2"/>
            <line class="cls-20" x1="151.1" y1="18.2" x2="154.6" y2="18.2"/>
            <polyline class="cls-2" points="155.7 18.2 157.7 18.2 157.7 16.2"/>
            <line class="cls-21" x1="157.7" y1="12.6" x2="157.7" y2="7.1"/>
            <polyline class="cls-2" points="157.7 5.3 157.7 3.3 159.7 3.3"/>
            <polyline class="cls-2" points="164.5 3.3 166.5 3.3 166.5 5.3"/>
            <line class="cls-4" x1="166.5" y1="9.1" x2="166.5" y2="38"/>
          </g>
          <g>
            <polyline class="cls-2" points="200.6 39.9 200.6 41.9 198.6 41.9"/>
            <line class="cls-7" x1="195" y1="41.9" x2="182.4" y2="41.9"/>
            <polyline class="cls-2" points="180.6 41.9 178.6 41.9 178.6 39.9"/>
            <line class="cls-4" x1="178.6" y1="36.1" x2="178.6" y2="7.2"/>
            <polyline class="cls-2" points="178.6 5.3 178.6 3.3 180.6 3.3"/>
            <line class="cls-8" x1="184" y1="3.3" x2="196.1" y2="3.3"/>
            <polyline class="cls-2" points="197.8 3.3 199.8 3.3 199.8 5.3"/>
            <polyline class="cls-2" points="199.8 8.6 199.8 10.6 197.8 10.6"/>
            <line class="cls-9" x1="195" y1="10.6" x2="190.8" y2="10.6"/>
            <polyline class="cls-2" points="189.4 10.6 187.4 10.6 187.4 12.6"/>
            <polyline class="cls-2" points="187.4 16.4 187.4 18.4 189.4 18.4"/>
            <line class="cls-10" x1="192" y1="18.4" x2="195.9" y2="18.4"/>
            <polyline class="cls-2" points="197.2 18.4 199.2 18.4 199.2 20.4"/>
            <polyline class="cls-2" points="199.2 23.6 199.2 25.6 197.2 25.6"/>
            <line class="cls-10" x1="194.6" y1="25.6" x2="190.7" y2="25.6"/>
            <polyline class="cls-2" points="189.4 25.6 187.4 25.6 187.4 27.6"/>
            <polyline class="cls-2" points="187.4 32.6 187.4 34.6 189.4 34.6"/>
            <line class="cls-11" x1="192.4" y1="34.6" x2="197" y2="34.6"/>
            <polyline class="cls-2" points="198.6 34.6 200.6 34.6 200.6 36.6"/>
          </g>
          <g>
            <g>
              <path class="cls-2" d="M235.8,27.8l-1.8.9v.2a6.2,6.2,0,0,1,1.7,1.1" transform="translate(-3.6 -5.1)"/>
              <path class="cls-22" d="M237.7,32.6a15.2,15.2,0,0,1,1.2,3.6c.6,2.4,1.2,5.2,1.8,7.3" transform="translate(-3.6 -5.1)"/>
              <path class="cls-2" d="M241.1,45.1a9.7,9.7,0,0,0,.7,1.9h-2" transform="translate(-3.6 -5.1)"/>
              <path class="cls-2" d="M234.7,47h-2a16.7,16.7,0,0,1-.7-1.9" transform="translate(-3.6 -5.1)"/>
              <path class="cls-23" d="M231.2,42c-.3-1.2-.6-2.6-.9-4.1-.6-3.6-1.6-5.2-3.3-5.7" transform="translate(-3.6 -5.1)"/>
              <path class="cls-2" d="M225.4,32h-1.9v2" transform="translate(-3.6 -5.1)"/>
              <line class="cls-24" x1="219.9" y1="32.5" x2="219.9" y2="38.1"/>
              <polyline class="cls-2" points="219.9 39.9 219.9 41.9 217.9 41.9"/>
              <polyline class="cls-2" points="213.1 41.9 211.1 41.9 211.1 39.9"/>
              <line class="cls-25" x1="211.1" y1="36.1" x2="211.1" y2="7.7"/>
              <path class="cls-2" d="M214.7,10.9v-2l2-.3" transform="translate(-3.6 -5.1)"/>
              <path class="cls-26" d="M220.3,8.3l4.9-.2c5.1,0,15.2.5,15.2,11.1a10.2,10.2,0,0,1-3.2,7.5" transform="translate(-3.6 -5.1)"/>
            </g>
            <g>
              <path class="cls-2" d="M225.4,14.8l-1.9.2v2" transform="translate(-3.6 -5.1)"/>
              <line class="cls-27" x1="219.9" y1="14.1" x2="219.9" y2="17.3"/>
              <polyline class="cls-2" points="219.9 18.4 219.9 20.4 221.9 20.4"/>
              <path class="cls-28" d="M229.1,24.7a5.4,5.4,0,0,0,2.5-4.7c0-3.7-2.3-4.9-4.3-5.2" transform="translate(-3.6 -5.1)"/>
            </g>
          </g>
        </g>
        <g>
          <path class="cls-29" d="M28.2,47H6.6V8.3h8.8V39.5H28.2Z" transform="translate(-3.6 -5.1)"/>
          <path class="cls-29" d="M59.9,47H38V8.3H59.2v7.4H46.8v7.7H58.5v7.2H46.8v9H59.9Z" transform="translate(-3.6 -5.1)"/>
          <path class="cls-29" d="M98.9,47H89.8l-2.3-9H78.6l-2.1,9H67.6L77.8,8.3H89ZM86.5,31.3l-1.7-7.7-1.7-8.1H83c-.5,2.3-1.1,5.9-1.6,8.1l-1.7,7.7Z" transform="translate(-3.6 -5.1)"/>
          <path class="cls-29" d="M132.2,16h-8.8V47h-8.8V16h-8.8V8.3h26.4Z" transform="translate(-3.6 -5.1)"/>
          <path class="cls-29" d="M170.1,47h-8.8V31.2H150.4V47h-8.9V8.3h8.9v15h10.9V8.3h8.8Z" transform="translate(-3.6 -5.1)"/>
          <path class="cls-29" d="M204.1,47h-22V8.3h21.3v7.4H191v7.7h11.7v7.2H191v9h13.1Z" transform="translate(-3.6 -5.1)"/>
          <path class="cls-29" d="M234,28.9c2.7,1.1,4,3.6,4.9,7.3s2.1,9.3,2.9,10.8h-9.1a54,54,0,0,1-2.4-9.1c-.8-4.7-2.2-6-5.1-6h-1.7V47h-8.8V8.9a61.5,61.5,0,0,1,10.5-.8c5.1,0,15.2.5,15.2,11.1a10,10,0,0,1-6.4,9.5Zm-8.2-3.5c3.7,0,5.8-2.3,5.8-5.4s-3.2-5.3-5.3-5.3a8.5,8.5,0,0,0-2.8.3V25.4Z" transform="translate(-3.6 -5.1)"/>
        </g>
      </g>
    </g>
  </g>
</svg>
