<svg xmlns="http://www.w3.org/2000/svg" viewBox="0 0 246.8 54.5">
  <defs>
    <style>
      .cls-1, .cls-2 {
        fill: none;
        stroke-linecap: round;
        stroke-linejoin: round;
      }

      .cls-1 {
        stroke: red;
        stroke-width: 8px;
      }

      .cls-2 {
        stroke: #fff;
        stroke-width: 4px;
      }

      .cls-3 {
        fill: #2e3192;
      }
    </style>
  </defs>
  <title>アセット 3</title>
  <g id="レイヤー_2" data-name="レイヤー 2">
    <g id="全世界対応">
      <g>
        <g>
          <path d="M34.9,42.1v4.6H52.2v6.2H11.1V46.7H27.6V42.1H14.9v-6H27.6V31.7H17.5V27.6l-5.2,3.1A27.9,27.9,0,0,0,8,25.1c8.3-4,16-11.3,19.5-17.1l9.2.5a1.7,1.7,0,0,1-1.5,1.1A49.7,49.7,0,0,0,55,24.4a32.9,32.9,0,0,0-4.6,6.3l-5-3v4H34.9v4.4H47.8v6Zm7.4-16.6A51.5,51.5,0,0,1,31.2,14.9,49.5,49.5,0,0,1,20.4,25.5Z" transform="translate(-4 -4)"/>
          <path d="M95.1,40.9H88V39.1H83.1v1.7H76V26.4H70.8v18h29.6v6.8H70.8v2.7H63.6V26.4H56.9V19.7h6.7V9.9l8.7.4c-.1.6-.5.9-1.5,1.1v8.3H76V8.9l8.5.4c0,.6-.4.9-1.4,1v9.4H88V9.3l8.5.4c0,.6-.4.9-1.4,1.1v8.9h7v6.7h-7Zm-12-8.3H88V26.4H83.1Z" transform="translate(-4 -4)"/>
          <path d="M145.4,31h-7.1a30.1,30.1,0,0,0,12.2,6.3,26.1,26.1,0,0,0-4.6,5.9,31.1,31.1,0,0,1-8.1-4.2V54h-6.9V35.8l3.5.2a41.1,41.1,0,0,1-4.2-5h-5.4a27.3,27.3,0,0,1-4.1,4.8l5.1.3c-.1.6-.4.9-1.4,1v2.3c0,4.8-1.4,11.4-11.1,15.1a25.8,25.8,0,0,0-4.5-5.4c8.8-2.9,8.8-7.8,8.8-10.7a30.7,30.7,0,0,1-8.7,4.8,29.3,29.3,0,0,0-4.5-5.5A31.6,31.6,0,0,0,116.5,31H110V9.8h35.4ZM116.8,15.4v2.4h7.1V15.4Zm0,7.6v2.5h7.1V23Zm21.5-5.2V15.4h-7.6v2.4Zm0,7.7V23h-7.6v2.5Z" transform="translate(-4 -4)"/>
          <path d="M158.9,24.6c1.8,2,3.8,4.1,5.7,6.4.7-2.5,1.3-5.1,1.8-7.9l7.7,1.5c-.1.4-.5.7-1.3.8A75.2,75.2,0,0,1,169.4,37a49.6,49.6,0,0,1,4.8,7.7l-5.5,4.7c-.8-1.6-1.8-3.5-3-5.4a29.3,29.3,0,0,1-9.2,9,40.6,40.6,0,0,0-4.2-5.3,23.5,23.5,0,0,0,9.3-9.7c-2.4-3.3-5.1-6.6-7.6-9.4Zm39.1-6v6.6h-4.8V45.5c0,6.1-1.5,8.4-11.7,8.4a26.7,26.7,0,0,0-2.2-7.5h5.9c.8,0,1.1-.2,1.1-1.1V25.2H174.9V22.3H152.7V15.9h8.7V8.4l8,.4c0,.5-.4.8-1.4,1v6.1h8.7v2.7h9.6V8.3l8.4.4c-.1.5-.5.9-1.5,1.1v8.8ZM178.6,41.4a36.2,36.2,0,0,0-4.8-10.3l5.6-2.8c2.2,3.1,4.5,7.2,5.2,10Z" transform="translate(-4 -4)"/>
          <path d="M211.5,25.6c0,8-.8,20.5-5.3,28.2a27.6,27.6,0,0,0-6.1-3.9c4.1-7,4.4-17.3,4.4-24.3v-12h16.9V8.3l8.7.5c0,.5-.4.9-1.4,1.1v3.7h17v6.6H227.1a72.3,72.3,0,0,1,10.2,6.1l-5,5.2c-2.4-2.2-7.6-5.4-11.5-7.4l3.9-3.9H211.5Zm-1,21.5c1.8-3.7,2.7-9,3-14.4l6.3,1.4c-.4,5.6-1.1,11.8-3.1,15.7ZM239.9,50a35.7,35.7,0,0,0-1.7-7.3h0c-.6,8.3-2.2,10.8-6.8,10.8h-3.9c-5.4,0-6.7-2.1-6.7-8.2V29.6l8.3.5c0,.5-.4.8-1.4,1V45.3c0,1.8.1,2,1.1,2h1.9c1,0,1.2-1.1,1.4-7.4a21.2,21.2,0,0,0,6.1,2.8,75.5,75.5,0,0,0-3.3-8.3l6.3-2.3c2.5,4.8,5,11,5.6,15.2Z" transform="translate(-4 -4)"/>
        </g>
        <g>
          <path class="cls-1" d="M34.9,42.1v4.6H52.2v6.2H11.1V46.7H27.6V42.1H14.9v-6H27.6V31.7H17.5V27.6l-5.2,3.1A27.9,27.9,0,0,0,8,25.1c8.3-4,16-11.3,19.5-17.1l9.2.5a1.7,1.7,0,0,1-1.5,1.1A49.7,49.7,0,0,0,55,24.4a32.9,32.9,0,0,0-4.6,6.3l-5-3v4H34.9v4.4H47.8v6Zm7.4-16.6A51.5,51.5,0,0,1,31.2,14.9,49.5,49.5,0,0,1,20.4,25.5Z" transform="translate(-4 -4)"/>
          <path class="cls-1" d="M95.1,40.9H88V39.1H83.1v1.7H76V26.4H70.8v18h29.6v6.8H70.8v2.7H63.6V26.4H56.9V19.7h6.7V9.9l8.7.4c-.1.6-.5.9-1.5,1.1v8.3H76V8.9l8.5.4c0,.6-.4.9-1.4,1v9.4H88V9.3l8.5.4c0,.6-.4.9-1.4,1.1v8.9h7v6.7h-7Zm-12-8.3H88V26.4H83.1Z" transform="translate(-4 -4)"/>
          <path class="cls-1" d="M145.4,31h-7.1a30.1,30.1,0,0,0,12.2,6.3,26.1,26.1,0,0,0-4.6,5.9,31.1,31.1,0,0,1-8.1-4.2V54h-6.9V35.8l3.5.2a41.1,41.1,0,0,1-4.2-5h-5.4a27.3,27.3,0,0,1-4.1,4.8l5.1.3c-.1.6-.4.9-1.4,1v2.3c0,4.8-1.4,11.4-11.1,15.1a25.8,25.8,0,0,0-4.5-5.4c8.8-2.9,8.8-7.8,8.8-10.7a30.7,30.7,0,0,1-8.7,4.8,29.3,29.3,0,0,0-4.5-5.5A31.6,31.6,0,0,0,116.5,31H110V9.8h35.4ZM116.8,15.4v2.4h7.1V15.4Zm0,7.6v2.5h7.1V23Zm21.5-5.2V15.4h-7.6v2.4Zm0,7.7V23h-7.6v2.5Z" transform="translate(-4 -4)"/>
          <path class="cls-1" d="M158.9,24.6c1.8,2,3.8,4.1,5.7,6.4.7-2.5,1.3-5.1,1.8-7.9l7.7,1.5c-.1.4-.5.7-1.3.8A75.2,75.2,0,0,1,169.4,37a49.6,49.6,0,0,1,4.8,7.7l-5.5,4.7c-.8-1.6-1.8-3.5-3-5.4a29.3,29.3,0,0,1-9.2,9,40.6,40.6,0,0,0-4.2-5.3,23.5,23.5,0,0,0,9.3-9.7c-2.4-3.3-5.1-6.6-7.6-9.4Zm39.1-6v6.6h-4.8V45.5c0,6.1-1.5,8.4-11.7,8.4a26.7,26.7,0,0,0-2.2-7.5h5.9c.8,0,1.1-.2,1.1-1.1V25.2H174.9V22.3H152.7V15.9h8.7V8.4l8,.4c0,.5-.4.8-1.4,1v6.1h8.7v2.7h9.6V8.3l8.4.4c-.1.5-.5.9-1.5,1.1v8.8ZM178.6,41.4a36.2,36.2,0,0,0-4.8-10.3l5.6-2.8c2.2,3.1,4.5,7.2,5.2,10Z" transform="translate(-4 -4)"/>
          <path class="cls-1" d="M211.5,25.6c0,8-.8,20.5-5.3,28.2a27.6,27.6,0,0,0-6.1-3.9c4.1-7,4.4-17.3,4.4-24.3v-12h16.9V8.3l8.7.5c0,.5-.4.9-1.4,1.1v3.7h17v6.6H227.1a72.3,72.3,0,0,1,10.2,6.1l-5,5.2c-2.4-2.2-7.6-5.4-11.5-7.4l3.9-3.9H211.5Zm-1,21.5c1.8-3.7,2.7-9,3-14.4l6.3,1.4c-.4,5.6-1.1,11.8-3.1,15.7ZM239.9,50a35.7,35.7,0,0,0-1.7-7.3h0c-.6,8.3-2.2,10.8-6.8,10.8h-3.9c-5.4,0-6.7-2.1-6.7-8.2V29.6l8.3.5c0,.5-.4.8-1.4,1V45.3c0,1.8.1,2,1.1,2h1.9c1,0,1.2-1.1,1.4-7.4a21.2,21.2,0,0,0,6.1,2.8,75.5,75.5,0,0,0-3.3-8.3l6.3-2.3c2.5,4.8,5,11,5.6,15.2Z" transform="translate(-4 -4)"/>
        </g>
        <g>
          <path class="cls-2" d="M34.9,42.1v4.6H52.2v6.2H11.1V46.7H27.6V42.1H14.9v-6H27.6V31.7H17.5V27.6l-5.2,3.1A27.9,27.9,0,0,0,8,25.1c8.3-4,16-11.3,19.5-17.1l9.2.5a1.7,1.7,0,0,1-1.5,1.1A49.7,49.7,0,0,0,55,24.4a32.9,32.9,0,0,0-4.6,6.3l-5-3v4H34.9v4.4H47.8v6Zm7.4-16.6A51.5,51.5,0,0,1,31.2,14.9,49.5,49.5,0,0,1,20.4,25.5Z" transform="translate(-4 -4)"/>
          <path class="cls-2" d="M95.1,40.9H88V39.1H83.1v1.7H76V26.4H70.8v18h29.6v6.8H70.8v2.7H63.6V26.4H56.9V19.7h6.7V9.9l8.7.4c-.1.6-.5.9-1.5,1.1v8.3H76V8.9l8.5.4c0,.6-.4.9-1.4,1v9.4H88V9.3l8.5.4c0,.6-.4.9-1.4,1.1v8.9h7v6.7h-7Zm-12-8.3H88V26.4H83.1Z" transform="translate(-4 -4)"/>
          <path class="cls-2" d="M145.4,31h-7.1a30.1,30.1,0,0,0,12.2,6.3,26.1,26.1,0,0,0-4.6,5.9,31.1,31.1,0,0,1-8.1-4.2V54h-6.9V35.8l3.5.2a41.1,41.1,0,0,1-4.2-5h-5.4a27.3,27.3,0,0,1-4.1,4.8l5.1.3c-.1.6-.4.9-1.4,1v2.3c0,4.8-1.4,11.4-11.1,15.1a25.8,25.8,0,0,0-4.5-5.4c8.8-2.9,8.8-7.8,8.8-10.7a30.7,30.7,0,0,1-8.7,4.8,29.3,29.3,0,0,0-4.5-5.5A31.6,31.6,0,0,0,116.5,31H110V9.8h35.4ZM116.8,15.4v2.4h7.1V15.4Zm0,7.6v2.5h7.1V23Zm21.5-5.2V15.4h-7.6v2.4Zm0,7.7V23h-7.6v2.5Z" transform="translate(-4 -4)"/>
          <path class="cls-2" d="M158.9,24.6c1.8,2,3.8,4.1,5.7,6.4.7-2.5,1.3-5.1,1.8-7.9l7.7,1.5c-.1.4-.5.7-1.3.8A75.2,75.2,0,0,1,169.4,37a49.6,49.6,0,0,1,4.8,7.7l-5.5,4.7c-.8-1.6-1.8-3.5-3-5.4a29.3,29.3,0,0,1-9.2,9,40.6,40.6,0,0,0-4.2-5.3,23.5,23.5,0,0,0,9.3-9.7c-2.4-3.3-5.1-6.6-7.6-9.4Zm39.1-6v6.6h-4.8V45.5c0,6.1-1.5,8.4-11.7,8.4a26.7,26.7,0,0,0-2.2-7.5h5.9c.8,0,1.1-.2,1.1-1.1V25.2H174.9V22.3H152.7V15.9h8.7V8.4l8,.4c0,.5-.4.8-1.4,1v6.1h8.7v2.7h9.6V8.3l8.4.4c-.1.5-.5.9-1.5,1.1v8.8ZM178.6,41.4a36.2,36.2,0,0,0-4.8-10.3l5.6-2.8c2.2,3.1,4.5,7.2,5.2,10Z" transform="translate(-4 -4)"/>
          <path class="cls-2" d="M211.5,25.6c0,8-.8,20.5-5.3,28.2a27.6,27.6,0,0,0-6.1-3.9c4.1-7,4.4-17.3,4.4-24.3v-12h16.9V8.3l8.7.5c0,.5-.4.9-1.4,1.1v3.7h17v6.6H227.1a72.3,72.3,0,0,1,10.2,6.1l-5,5.2c-2.4-2.2-7.6-5.4-11.5-7.4l3.9-3.9H211.5Zm-1,21.5c1.8-3.7,2.7-9,3-14.4l6.3,1.4c-.4,5.6-1.1,11.8-3.1,15.7ZM239.9,50a35.7,35.7,0,0,0-1.7-7.3h0c-.6,8.3-2.2,10.8-6.8,10.8h-3.9c-5.4,0-6.7-2.1-6.7-8.2V29.6l8.3.5c0,.5-.4.8-1.4,1V45.3c0,1.8.1,2,1.1,2h1.9c1,0,1.2-1.1,1.4-7.4a21.2,21.2,0,0,0,6.1,2.8,75.5,75.5,0,0,0-3.3-8.3l6.3-2.3c2.5,4.8,5,11,5.6,15.2Z" transform="translate(-4 -4)"/>
        </g>
        <g>
          <path class="cls-3" d="M34.9,42.1v4.6H52.2v6.2H11.1V46.7H27.6V42.1H14.9v-6H27.6V31.7H17.5V27.6l-5.2,3.1A27.9,27.9,0,0,0,8,25.1c8.3-4,16-11.3,19.5-17.1l9.2.5a1.7,1.7,0,0,1-1.5,1.1A49.7,49.7,0,0,0,55,24.4a32.9,32.9,0,0,0-4.6,6.3l-5-3v4H34.9v4.4H47.8v6Zm7.4-16.6A51.5,51.5,0,0,1,31.2,14.9,49.5,49.5,0,0,1,20.4,25.5Z" transform="translate(-4 -4)"/>
          <path class="cls-3" d="M95.1,40.9H88V39.1H83.1v1.7H76V26.4H70.8v18h29.6v6.8H70.8v2.7H63.6V26.4H56.9V19.7h6.7V9.9l8.7.4c-.1.6-.5.9-1.5,1.1v8.3H76V8.9l8.5.4c0,.6-.4.9-1.4,1v9.4H88V9.3l8.5.4c0,.6-.4.9-1.4,1.1v8.9h7v6.7h-7Zm-12-8.3H88V26.4H83.1Z" transform="translate(-4 -4)"/>
          <path class="cls-3" d="M145.4,31h-7.1a30.1,30.1,0,0,0,12.2,6.3,26.1,26.1,0,0,0-4.6,5.9,31.1,31.1,0,0,1-8.1-4.2V54h-6.9V35.8l3.5.2a41.1,41.1,0,0,1-4.2-5h-5.4a27.3,27.3,0,0,1-4.1,4.8l5.1.3c-.1.6-.4.9-1.4,1v2.3c0,4.8-1.4,11.4-11.1,15.1a25.8,25.8,0,0,0-4.5-5.4c8.8-2.9,8.8-7.8,8.8-10.7a30.7,30.7,0,0,1-8.7,4.8,29.3,29.3,0,0,0-4.5-5.5A31.6,31.6,0,0,0,116.5,31H110V9.8h35.4ZM116.8,15.4v2.4h7.1V15.4Zm0,7.6v2.5h7.1V23Zm21.5-5.2V15.4h-7.6v2.4Zm0,7.7V23h-7.6v2.5Z" transform="translate(-4 -4)"/>
          <path class="cls-3" d="M158.9,24.6c1.8,2,3.8,4.1,5.7,6.4.7-2.5,1.3-5.1,1.8-7.9l7.7,1.5c-.1.4-.5.7-1.3.8A75.2,75.2,0,0,1,169.4,37a49.6,49.6,0,0,1,4.8,7.7l-5.5,4.7c-.8-1.6-1.8-3.5-3-5.4a29.3,29.3,0,0,1-9.2,9,40.6,40.6,0,0,0-4.2-5.3,23.5,23.5,0,0,0,9.3-9.7c-2.4-3.3-5.1-6.6-7.6-9.4Zm39.1-6v6.6h-4.8V45.5c0,6.1-1.5,8.4-11.7,8.4a26.7,26.7,0,0,0-2.2-7.5h5.9c.8,0,1.1-.2,1.1-1.1V25.2H174.9V22.3H152.7V15.9h8.7V8.4l8,.4c0,.5-.4.8-1.4,1v6.1h8.7v2.7h9.6V8.3l8.4.4c-.1.5-.5.9-1.5,1.1v8.8ZM178.6,41.4a36.2,36.2,0,0,0-4.8-10.3l5.6-2.8c2.2,3.1,4.5,7.2,5.2,10Z" transform="translate(-4 -4)"/>
          <path class="cls-3" d="M211.5,25.6c0,8-.8,20.5-5.3,28.2a27.6,27.6,0,0,0-6.1-3.9c4.1-7,4.4-17.3,4.4-24.3v-12h16.9V8.3l8.7.5c0,.5-.4.9-1.4,1.1v3.7h17v6.6H227.1a72.3,72.3,0,0,1,10.2,6.1l-5,5.2c-2.4-2.2-7.6-5.4-11.5-7.4l3.9-3.9H211.5Zm-1,21.5c1.8-3.7,2.7-9,3-14.4l6.3,1.4c-.4,5.6-1.1,11.8-3.1,15.7ZM239.9,50a35.7,35.7,0,0,0-1.7-7.3h0c-.6,8.3-2.2,10.8-6.8,10.8h-3.9c-5.4,0-6.7-2.1-6.7-8.2V29.6l8.3.5c0,.5-.4.8-1.4,1V45.3c0,1.8.1,2,1.1,2h1.9c1,0,1.2-1.1,1.4-7.4a21.2,21.2,0,0,0,6.1,2.8,75.5,75.5,0,0,0-3.3-8.3l6.3-2.3c2.5,4.8,5,11,5.6,15.2Z" transform="translate(-4 -4)"/>
        </g>
      </g>
    </g>
  </g>
</svg>
