<svg xmlns="http://www.w3.org/2000/svg" viewBox="0 0 148.7 56.1">
  <defs>
    <style>
      .cls-1 {
        fill: #3800d0;
      }

      .cls-2, .cls-3 {
        fill: none;
      }

      .cls-2 {
        stroke: aqua;
        stroke-linecap: round;
        stroke-linejoin: round;
        stroke-width: 10px;
      }

      .cls-3 {
        stroke: #fff;
        stroke-width: 5px;
      }

      .cls-4 {
        fill: blue;
      }
    </style>
  </defs>
  <title>アセット 2</title>
  <g id="レイヤー_2" data-name="レイヤー 2">
    <g id="世界中">
      <g>
        <g>
          <path class="cls-1" d="M48.2,42.5H41.1V40.7H36.2v1.8H29.1V28.1H23.9v18H53.4v6.8H23.9v2.7H16.7V28.1H10V21.3h6.7V11.5l8.7.5c-.1.5-.5.9-1.5,1v8.3h5.2V10.5l8.5.5c0,.5-.4.8-1.4,1v9.3h4.9V11l8.5.4c0,.6-.4.9-1.4,1v8.9h7v6.8h-7Zm-12-8.3h4.9V28.1H36.2Z" transform="translate(-5 -5)"/>
          <path class="cls-1" d="M98.5,32.7H91.4A30.1,30.1,0,0,0,103.6,39a29.1,29.1,0,0,0-4.7,5.8,29.1,29.1,0,0,1-8-4.2V55.7H84V37.5l3.5.2a28.6,28.6,0,0,1-4.2-5H77.9a31.4,31.4,0,0,1-4.2,4.8l5.2.3c-.1.5-.4.9-1.4,1v2.3c0,4.8-1.4,11.3-11.1,15a25.3,25.3,0,0,0-4.5-5.3c8.8-3,8.8-7.8,8.8-10.7A33.4,33.4,0,0,1,62,44.9a33.5,33.5,0,0,0-4.5-5.6,33.7,33.7,0,0,0,12.1-6.6H63.1V11.5H98.5ZM69.9,17.1v2.4H77V17.1Zm0,7.5v2.5H77V24.6Zm21.5-5.1V17.1H83.8v2.4Zm0,7.6V24.6H83.8v2.5Z" transform="translate(-5 -5)"/>
          <path class="cls-1" d="M131.9,18.2h16.8v25h-7.3V40.9h-9.5V55.6h-7.4V40.9h-9v2.5h-7V18.2h16V10l8.9.5c0,.5-.5.8-1.5,1ZM115.5,34h9V25.1h-9Zm16.4,0h9.5V25.1h-9.5Z" transform="translate(-5 -5)"/>
        </g>
        <g>
          <path class="cls-2" d="M48.2,42.5H41.1V40.7H36.2v1.8H29.1V28.1H23.9v18H53.4v6.8H23.9v2.7H16.7V28.1H10V21.3h6.7V11.5l8.7.5c-.1.5-.5.9-1.5,1v8.3h5.2V10.5l8.5.5c0,.5-.4.8-1.4,1v9.3h4.9V11l8.5.4c0,.6-.4.9-1.4,1v8.9h7v6.8h-7Zm-12-8.3h4.9V28.1H36.2Z" transform="translate(-5 -5)"/>
          <path class="cls-2" d="M98.5,32.7H91.4A30.1,30.1,0,0,0,103.6,39a29.1,29.1,0,0,0-4.7,5.8,29.1,29.1,0,0,1-8-4.2V55.7H84V37.5l3.5.2a28.6,28.6,0,0,1-4.2-5H77.9a31.4,31.4,0,0,1-4.2,4.8l5.2.3c-.1.5-.4.9-1.4,1v2.3c0,4.8-1.4,11.3-11.1,15a25.3,25.3,0,0,0-4.5-5.3c8.8-3,8.8-7.8,8.8-10.7A33.4,33.4,0,0,1,62,44.9a33.5,33.5,0,0,0-4.5-5.6,33.7,33.7,0,0,0,12.1-6.6H63.1V11.5H98.5ZM69.9,17.1v2.4H77V17.1Zm0,7.5v2.5H77V24.6Zm21.5-5.1V17.1H83.8v2.4Zm0,7.6V24.6H83.8v2.5Z" transform="translate(-5 -5)"/>
          <path class="cls-2" d="M131.9,18.2h16.8v25h-7.3V40.9h-9.5V55.6h-7.4V40.9h-9v2.5h-7V18.2h16V10l8.9.5c0,.5-.5.8-1.5,1ZM115.5,34h9V25.1h-9Zm16.4,0h9.5V25.1h-9.5Z" transform="translate(-5 -5)"/>
        </g>
        <g>
          <path class="cls-3" d="M48.2,42.5H41.1V40.7H36.2v1.8H29.1V28.1H23.9v18H53.4v6.8H23.9v2.7H16.7V28.1H10V21.3h6.7V11.5l8.7.5c-.1.5-.5.9-1.5,1v8.3h5.2V10.5l8.5.5c0,.5-.4.8-1.4,1v9.3h4.9V11l8.5.4c0,.6-.4.9-1.4,1v8.9h7v6.8h-7Zm-12-8.3h4.9V28.1H36.2Z" transform="translate(-5 -5)"/>
          <path class="cls-3" d="M98.5,32.7H91.4A30.1,30.1,0,0,0,103.6,39a29.1,29.1,0,0,0-4.7,5.8,29.1,29.1,0,0,1-8-4.2V55.7H84V37.5l3.5.2a28.6,28.6,0,0,1-4.2-5H77.9a31.4,31.4,0,0,1-4.2,4.8l5.2.3c-.1.5-.4.9-1.4,1v2.3c0,4.8-1.4,11.3-11.1,15a25.3,25.3,0,0,0-4.5-5.3c8.8-3,8.8-7.8,8.8-10.7A33.4,33.4,0,0,1,62,44.9a33.5,33.5,0,0,0-4.5-5.6,33.7,33.7,0,0,0,12.1-6.6H63.1V11.5H98.5ZM69.9,17.1v2.4H77V17.1Zm0,7.5v2.5H77V24.6Zm21.5-5.1V17.1H83.8v2.4Zm0,7.6V24.6H83.8v2.5Z" transform="translate(-5 -5)"/>
          <path class="cls-3" d="M131.9,18.2h16.8v25h-7.3V40.9h-9.5V55.6h-7.4V40.9h-9v2.5h-7V18.2h16V10l8.9.5c0,.5-.5.8-1.5,1ZM115.5,34h9V25.1h-9Zm16.4,0h9.5V25.1h-9.5Z" transform="translate(-5 -5)"/>
        </g>
        <g>
          <path class="cls-4" d="M48.2,42.5H41.1V40.7H36.2v1.8H29.1V28.1H23.9v18H53.4v6.8H23.9v2.7H16.7V28.1H10V21.3h6.7V11.5l8.7.5c-.1.5-.5.9-1.5,1v8.3h5.2V10.5l8.5.5c0,.5-.4.8-1.4,1v9.3h4.9V11l8.5.4c0,.6-.4.9-1.4,1v8.9h7v6.8h-7Zm-12-8.3h4.9V28.1H36.2Z" transform="translate(-5 -5)"/>
          <path class="cls-4" d="M98.5,32.7H91.4A30.1,30.1,0,0,0,103.6,39a29.1,29.1,0,0,0-4.7,5.8,29.1,29.1,0,0,1-8-4.2V55.7H84V37.5l3.5.2a28.6,28.6,0,0,1-4.2-5H77.9a31.4,31.4,0,0,1-4.2,4.8l5.2.3c-.1.5-.4.9-1.4,1v2.3c0,4.8-1.4,11.3-11.1,15a25.3,25.3,0,0,0-4.5-5.3c8.8-3,8.8-7.8,8.8-10.7A33.4,33.4,0,0,1,62,44.9a33.5,33.5,0,0,0-4.5-5.6,33.7,33.7,0,0,0,12.1-6.6H63.1V11.5H98.5ZM69.9,17.1v2.4H77V17.1Zm0,7.5v2.5H77V24.6Zm21.5-5.1V17.1H83.8v2.4Zm0,7.6V24.6H83.8v2.5Z" transform="translate(-5 -5)"/>
          <path class="cls-4" d="M131.9,18.2h16.8v25h-7.3V40.9h-9.5V55.6h-7.4V40.9h-9v2.5h-7V18.2h16V10l8.9.5c0,.5-.5.8-1.5,1ZM115.5,34h9V25.1h-9Zm16.4,0h9.5V25.1h-9.5Z" transform="translate(-5 -5)"/>
        </g>
      </g>
    </g>
  </g>
</svg>
