<?xml version="1.0" encoding="utf-8"?>
<!-- Generator: Adobe Illustrator 19.0.0, SVG Export Plug-In . SVG Version: 6.00 Build 0)  -->
<svg version="1.1" xmlns="http://www.w3.org/2000/svg" xmlns:xlink="http://www.w3.org/1999/xlink" x="0px" y="0px"
	 viewBox="0 0 130 130" style="enable-background:new 0 0 130 130;" xml:space="preserve">
<style type="text/css">
	.st0{fill:#077AFF;}
	.st1{fill:#FFFFFF;}
</style>
<g id="レイヤー_1">
</g>
<g id="レイヤー_3">
	<g id="XMLID_19_">
		<circle id="XMLID_2_" class="st0" cx="65" cy="65" r="65"/>
		<path id="XMLID_3_" class="st1" d="M23.3,95.3c7.2,4.7,36.5,15.8,59.3-4C93,81,101.2,65.2,99.3,51.3c2.6-2.6,7.5-5.5,9-9.2
			c-3.2,1-8.8,2-8.8,2c2-2,6.7-6.9,6.7-9.6c-2.8,1.2-10.3,4-10.6,3.8c-2.7-2.7-8.3-8.8-20.2-4.7c-5,1.8-12.3,9.8-11.3,20.1
			c-4.2-0.5-21.2-1.3-34.8-18.7c-2.5,4.8-6.3,13.9,3.8,24.1c-0.8,0-3,0.1-5.8-2.7c-1,2.7-1.3,14.1,11.9,18.9c-1.4-0.1-3.7,0-7.3-0.7
			c1,4.5,5.1,12.3,15.5,13.4C43.2,90.5,40.8,93.7,23.3,95.3z"/>
	</g>
</g>
</svg>
