<?xml version="1.0" encoding="utf-8"?>
<!-- Generator: Adobe Illustrator 19.0.0, SVG Export Plug-In . SVG Version: 6.00 Build 0)  -->
<svg version="1.1" xmlns="http://www.w3.org/2000/svg" xmlns:xlink="http://www.w3.org/1999/xlink" x="0px" y="0px"
	 viewBox="0 0 130 130" style="enable-background:new 0 0 130 130;" xml:space="preserve">
<style type="text/css">
	.st0{fill:none;stroke:#040000;stroke-miterlimit:10;}
	.st1{fill:#D72318;}
	.st2{fill:#FFFFFF;}
</style>
<g id="レイヤー_1">
</g>
<g id="レイヤー_3">
	<path id="XMLID_13_" class="st0" d="M107,102.7"/>
	<path id="XMLID_18_" class="st0" d="M129,102.7"/>
	<g id="XMLID_8_">
		<circle id="XMLID_6_" class="st1" cx="65" cy="65" r="65"/>
		<path id="XMLID_11_" class="st2" d="M60.2,86.2c0.5,7.2-5.8,13.5-14,14c-7.7,0.5-14-6.3-14-14s6.3-14,14-14S59.6,78.5,60.2,86.2z"
			/>
		<path id="XMLID_15_" class="st2" d="M72,101h13c0-18-6-54-53-54v14C40,61,72,58,72,101z"/>
		<path id="XMLID_17_" class="st2" d="M32,26v13c8,0,62.2-6,62.2,62H106C106,85,109,26,32,26z"/>
	</g>
</g>
<g id="レイヤー_4">
</g>
</svg>
