<svg xmlns="http://www.w3.org/2000/svg" viewBox="0 0 195 33.2"><path d="M14.4 33.2l14.4-8.3V8.3h-9.9l4.7 8.2-9.2 16.7z" fill="#21549d"/><path d="M9.4 8.3l-4.8 8.2L0 8.3 14.4 0l14.4 8.3H9.4" fill="#143e6c"/><path d="M0 8.3v16.6l14.4 8.3 4.8-8.6-9.7.1L0 8.3z" fill="#5188c0"/><path d="M52.7 8.8l.8-1c.9.7 1.3 1.1 1.3 1.3 0 .1-.1.2-.2.3l-.5.3v14.2c0 1.1-.7 1.7-2 1.7 0-.4-.3-.7-.6-.8-.7-.2-1.4-.4-2.1-.5v-.5c.9.1 1.8.2 2.7.2.5 0 .8-.1.8-.3V9.2h-13v16.3h-1.2V8.1c.5.2 1 .4 1.4.7h12.6zm-5.9 5.7v6.2h2.5V16c1.2.1 1.9.2 1.9.5s-.2.3-.8.5v5.3h-1.1v-1.2h-6.2v1.6H42v-6.8c1.3.1 1.9.3 1.9.5s-.3.3-.8.5v3.5h2.5v-6.2h-4.8l-.1-.2H47c.7-1.3 1.1-2.7 1.5-4.1 1.3.4 1.9.8 1.9 1.1 0 .3-.3.3-.9.3-.5 1-1.1 1.8-1.9 2.7h2.3l.9-1.3c.4.4.9.9 1.2 1.4l-.3.4h-4.9zM42.7 10c1.7.9 2.5 1.8 2.5 2.7 0 .6-.3.8-.8.8s-.5-.2-.6-.6c-.2-1-.7-1.9-1.4-2.6l.3-.3zm26.4 1.9c0 .8-.1 1.6-.3 2.4 1.4.8 2.7 1.7 3.8 2.8.7.5 1.1 1.3 1.3 2.1 0 .5-.2.7-.6.7-.3 0-.5-.3-.8-.8-1-1.7-2.3-3.2-3.9-4.4-.8 2.8-2.8 5.1-5.4 6.3l-.4-.5c3.1-1.8 5-5.2 5.1-8.8h-5.8v13.9h-1.2v-15c.4.2.8.3 1.1.5l.3.1h5.6V7.5c1.4 0 2 .2 2 .5 0 .2-.3.4-.8.6v2.8H75l.8-1c.9.7 1.4 1.2 1.4 1.4s-.1.1-.2.2l-.5.3v11.4c0 1.1-.7 1.7-2.1 1.8 0-.4-.4-.8-.8-.9-.3-.1-1.2-.2-2.5-.4v-.6c1.1.1 2.3.2 3.4.2.4.1.7-.2.8-.6V11.9h-6.2zm71.4-.3V10h-7.8l-.2-.5h8V7.3c1.4.1 2.1.3 2.1.5s-.3.4-.9.6v1.2h5.8l1-1.4c.1.1.2.2.4.3.4.4.8.8 1.1 1.2l-.2.4h-8.1v1.6h4.3l.8-.9c.8.5 1.2.9 1.2 1.1s0 .2-.2.3l-.4.3v2.8h-1.1v-.6h-4.5v1.9h4.5l.8-.8c.8.6 1.2 1 1.2 1.1 0 .1-.1.2-.2.3l-.5.3V19h1l1-1.4c.5.4.9.9 1.2 1.5l-.2.4h-3v4h-1.2V22h-4.6v2.3c0 1-.7 1.6-2 1.6 0-.4-.2-.8-.6-.9-.7-.2-1.3-.4-2-.5V24c1 .1 1.9.2 2.9.2.5 0 .7-.2.7-.6V22h-6.6l-.3-.5h6.9v-2.1h-8.3l-.2-.5h8.4V17h-6.5l-.2-.5h6.7v-1.9H136v.8h-1.1v-4.3c.6.2 1 .4 1.4.5h4.2zm0 .5H136v2h4.5v-2zm1.2 0v2h4.5v-2h-4.5zm0 6.8h4.6V17h-4.6v1.9zm0 .5v2.1h4.6v-2.1h-4.6zm17.9-4.2V24c0 1.1-.7 1.7-2 1.6 0-.4-.3-.8-.6-.9-.5-.2-1-.3-1.5-.4v-.5c1.1.1 1.9.2 2.4.2s.6-.2.6-.5v-6.2c-1 2.2-2.4 4.2-4.2 5.9l-.4-.4c1.9-2.2 3.4-4.8 4.3-7.6h-3.5l-.2-.5h7.1l.7-.9c.8.8 1.3 1.3 1.3 1.5 0 .1-.1.2-.2.2l-.6.2c-.5 1.1-1.2 2.2-1.8 3.2l-.5-.3c.5-1.1.9-2.3 1.2-3.5l-2.1.1zm1.2-5.8h-5.9l-.2-.5h6.1l.7-.9c.9.8 1.3 1.3 1.3 1.5s-.1.2-.2.2l-.6.1c-.9.9-1.8 1.7-2.8 2.5l.1.1c.4.3.7.8.7 1.3s-.2.7-.6.7c-.4 0-.5-.2-.6-.6-.8-1.2-1.8-2.2-3.1-2.8l.3-.4c.9.4 1.9.8 2.7 1.4.8-.8 1.5-1.7 2.1-2.6zm1.3 10.1l-.2-.5h3.8v-2.4c1.3 0 1.9.2 1.9.5 0 .1-.2.3-.7.5v1.3h3.1l.7-.8c.8.6 1.2 1 1.2 1.2 0 .1-.1.2-.2.2l-.5.3c-.1 2.6-.4 4.3-1 5.1-.4.5-1.1.8-1.8.8 0-.5-.8-1-2.2-1.3v-.5c.7.2 1.3.3 2 .3.5.1 1-.3 1.2-.8.4-1.3.5-2.6.5-3.9h-3.3c-.3 3.1-2.4 5.7-5.3 6.5l-.3-.5c2.5-1 4.1-3.3 4.4-6h-3.3zm.3-6l-.4-.4c1.5-1.7 2.5-3.7 3.1-5.8 1.2.3 1.7.6 1.7.9 0 .2-.3.3-.8.4-.2.4-.4.8-.6 1.3h5.1l.9-1.2c.5.4.9.8 1.3 1.3l-.2.4h-1.7c-.6 1.3-1.4 2.6-2.4 3.7 1.4 1 2.9 1.7 4.5 2.1-.4.3-.7.7-.9 1.1-1.5-.6-3-1.5-4.3-2.6-1.5 1.3-3.3 2.4-5.2 3.1l-.3-.5c1.8-.8 3.4-1.9 4.7-3.3-.9-.9-1.6-1.9-2.2-3-.7 1-1.4 1.8-2.3 2.5zm2.6-3c.7 1 1.5 2 2.4 2.8.8-.9 1.4-1.9 1.9-3h-4.2l-.1.2zm17.9 2.3l.8-1c.8.7 1.2 1.1 1.2 1.3 0 .1-.1.2-.2.2l-.4.3v5.9h-1.2v-1.3H179c-.1 3.3-.9 5.7-2.4 7.4l-.4-.3c1.1-1.9 1.7-4.5 1.7-7.9V12c.5.2.9.4 1.4.7l3.6.1zm.3-3.4l1-1.4c.5.5.9.9 1.3 1.5l-.2.4H177l-.2-.5h6.4zm-4.2 3.9v4.4h4.1v-4.4H179zm8.6 2c-.1 4.7-1.5 8.1-4.2 10.5l-.4-.4c2.3-2.5 3.4-5.9 3.4-10.3V9.2l1.2.6c1.7-.5 3.3-1.2 4.8-2.1.9.6 1.4 1 1.4 1.3s-.1.2-.4.2c-.2 0-.4 0-.6-.1-1.7.6-3.4 1-5.1 1.3h-.1v4.5h5.2l1-1.4c.5.5.9.9 1.3 1.5l-.2.4H192v10.3h-1.2V15.3h-3.2zM82.9 11.4c1.1-1.1 2-2.4 2.5-3.9.5.2.7.4.7.5 0 .1-.1.1-.4.2-.6 1.4-1.5 2.5-2.7 3.4l-.1-.2zm5.5 2.1c-1.3.2-2.8.4-4.4.5-.1.2-.1.3-.2.3s-.2-.3-.3-.8h1.2c.6-1.2 1.1-2.4 1.5-3.7.5.2.8.3.8.5s-.1.1-.4.2c-.4 1.1-1 2.1-1.6 3.1h.4c1-.1 2-.1 3.1-.2-.3-.6-.7-1.1-1.1-1.5l.1-.2c.6.5 1.1 1 1.6 1.7.2.2.3.5.4.9 0 .2-.1.3-.3.3s-.2-.1-.3-.4c-.1-.2-.2-.4-.3-.5l-.2-.2zm-1.2-6.1c.7 1.3 1.8 2.4 3.1 3.3-.2.1-.3.3-.5.5-1.2-1-2.2-2.2-2.8-3.6l.2-.2zm7.2 1.5l.4-.5c.2.1.3.3.5.5l.1.1-.1.1h-3.2l-.1-.2h2.4zm-.4 1l.4-.5.5.5-.1.1h-2.3l-.1-.2 1.6.1zm0 1l.4-.5.5.5-.1.2h-2.3l-.1-.2H94zm.1 1.1l.3-.4c.3.3.5.4.5.5 0 .1 0 .1-.1.1l-.2.1v2.3h-.5v-.5H93v.5h-.5v-2.8c.2.1.4.2.5.3l1.1-.1zm-.2-4.2l.4-.5.5.5V8h-2.1l-.1-.2h1.3zm-1 4.4v1.7h1.2v-1.6l-1.2-.1zm2.9-.2v.4c0 .4-.1.9-.2 1.3-.1.3-.3.4-.4.4s-.3-.1-.3-.3c0-.1.1-.2.2-.3.3-.4.5-1 .5-1.6l.2.1zm-.4-4.1l-.1-.2h3.2l.3-.4c.3.3.5.4.5.5 0 .1 0 .1-.1.1L99 8v.3c.1.8 0 1.5-.2 2.3-.2.2-.5.4-.8.4 0-.1-.1-.3-.2-.3-.2-.1-.5-.1-.7-.2v-.1c.3 0 .6.1.9.1.2 0 .4-.1.5-.4.1-.6.1-1.2.1-1.9v-.3h-1.3c0 .4-.1.8-.1 1.2.5.2.7.4.7.7 0 .2-.1.2-.2.2-.2 0-.2-.1-.3-.2l-.4-.3c-.3.8-1 1.4-1.8 1.8l-.1-.2c.7-.4 1.2-1.1 1.5-1.9-.3-.2-.7-.4-1-.5l.1-.2c.3.1.7.2 1 .3.1-.3.1-.7.1-1l-1.4.1zm3 5.2c0 .3 0 .5.1.8 0 .1.1.2.2.2 0 .2-.1.4-.2.4-.3.1-.6.1-.9.1-.3 0-.6 0-.9-.1-.2-.1-.3-.3-.2-.4v-2c.5 0 .7.1.7.2s-.1.1-.3.2V14c0 .1 0 .2.1.2h.5c.3 0 .5-.1.5-.2.1-.3.2-.6.2-.9h.2zm-1.7-2.2c.4.1.7.3 1 .5.2.1.3.3.3.5 0 .1-.1.3-.2.3h-.1c-.1 0-.2-.1-.3-.2-.2-.4-.5-.7-.9-.9l.2-.2zm1.8.9c.4.3.8.7 1.1 1.2.1.1.1.3.1.4 0 .3-.1.4-.3.4-.2 0-.2-.1-.3-.3-.1-.6-.4-1.1-.8-1.5l.2-.2zm6.8-4.2c.9 1.2 2.2 2.1 3.6 2.6-.2.1-.3.3-.4.5-1.4-.7-2.5-1.7-3.4-2.9l-.1.1c-.8 1.4-2.1 2.6-3.6 3.2l-.1-.2c1.5-.9 2.8-2.2 3.5-3.8.5.1.8.2.8.3.1.1-.1.1-.3.2zm-1.1 4.3h-2.3l-.1-.2h5.7l.5-.5.1.1c.2.2.4.3.5.5l-.1.2H105c-.3.6-.6 1.2-1 1.8 0 0 0 .1-.1.1h.5c.7 0 1.6-.1 2.6-.2h.3c-.3-.4-.7-.7-1.2-1l.1-.2c.7.3 1.3.7 1.9 1.3.2.2.3.4.3.6 0 .2-.1.3-.3.3-.1 0-.2-.1-.3-.2-.1-.2-.3-.5-.5-.7h-.2c-1.4.2-3 .4-4.6.5 0 .2-.1.3-.2.3s-.3-.3-.4-.8h1.4c.5-.5.8-1.2.9-1.9zm1.9-1.7l.4-.5c.2.2.4.4.6.5l-.1.2h-3.7l-.1-.2h2.9zm7.5-1.3l.4-.5c.2.2.4.4.5.6l-.1.2h-3.7l-.1-.2 3-.1zm-.5 1l.4-.5c.2.2.4.4.5.6l-.1.1h-2.6l-.1-.2h1.9zm0 1l.4-.5c.2.2.4.4.5.6l-.1.2h-2.6l-.1-.2h1.9zm.2 1.1l.3-.4c.3.3.5.4.5.5s0 .1-.1.1l-.2.1v2.3h-.5v-.5h-1.6v.5h-.5v-2.8l.6.3 1.5-.1zm-.3-4.3l.4-.5c.2.2.4.4.5.6l-.1.2h-2.4l-.1-.2 1.7-.1zm-1.2 4.6V14h1.6v-1.7h-1.6zm4.6-1.8v4.2h-.5v-4.3h-1.6l-.1-.2h1.8V7.4c.6 0 .9.1.9.2s-.1.2-.4.3v2.4h.9l.4-.6c.1.2.3.4.5.6l-.1.2h-1.8zm7.1 3.4v-3.6h-3.2l-.1-.2h3.3V7.4c.6 0 .9.1.9.2s-.1.2-.4.2V10h2.2l.5-.6c.2.2.4.4.6.7l-.1.2H124v3.6h1.9l.4-.6c.2.2.4.4.6.7l-.1.2h-6.1l-.1-.2 2.9-.1zM84.1 22c-.3.8-.7 1.6-1.2 2.3l-.2-.1c.7-1 1.1-2.2 1.4-3.4h-1.2l-.1-.2h1.3v-1.4c-.4.1-.8.2-1.2.2l-.1-.2c.9-.2 1.7-.5 2.4-.9.4.2.5.4.5.5s0 .1-.1.1h-.3c-.3.1-.6.2-.9.2v1.5h.6l.4-.5c.2.2.4.4.5.6l-.1.2h-1.3v.7c.8.5 1.2.9 1.2 1.4 0 .2-.1.3-.3.3-.2 0-.2-.1-.3-.3-.1-.4-.4-.8-.7-1.1v3.9H84V22zm5.2.5h-.6v2.4c0 .2.2.3.5.3s.5-.1.6-.3c.1-.4.2-.8.2-1.2l.2.1V25c0 .1.1.1.2.1 0 .2-.1.4-.2.5h-1c-.3 0-.6 0-.8-.1-.1-.1-.2-.3-.2-.5v-2.5h-.6c0 .7-.1 1.4-.4 2-.4.6-1 1.1-1.8 1.3l-.2-.3c.8-.3 1.4-.9 1.6-1.7.1-.4.2-.9.2-1.3h-.5v.5h-.4v-3l.6.3h1.5c.3-.7.6-1.3.7-2 .5.2.8.3.8.4 0 .1-.1.1-.4.1-.3.5-.6 1-.9 1.4h.8l.3-.4c.4.3.5.4.5.5s0 .1-.1.1l-.2.1v2.3h-.5l.1-.3zm-2.9-4.2c.8.5 1.1 1 1.1 1.5 0 .2-.1.3-.3.3-.2 0-.2-.1-.3-.3-.1-.5-.4-1-.8-1.4l.3-.1zm2.9 4v-1.9h-2.7v1.8l2.7.1zm13.6-.8v2c.4-.1.8-.3 1.2-.4l.1.2c-.8.4-1.6.7-2.4 1 0 .2-.1.3-.1.3-.1 0-.3-.2-.4-.7.4-.1.8-.2 1.1-.3v-2.1h-.9l-.1-.2h1v-2h-1l-.1-.2h1.9l.4-.5c.2.2.4.4.5.6l-.1.2h-1.2v2h.3l.4-.5c.2.2.3.4.5.6l-.1.2-1-.2zm4.8-2.8l.3-.4.5.5s0 .1-.1.1l-.2.1v3.4h-.5v-.3h-1.2v1.4h1.2l.4-.5c.2.2.4.4.5.6l-.1.1h-2.1v1.4h1.5l.4-.5.6.6-.1.2h-5.4l-.1-.2h2.5v-1.5h-1.9l-.1-.2h1.9v-1.4h-1.2v.5h-.5v-4.2h.1l.4.2 3.2.1zm-1.6.2h-1.2v1.4h1.2v-1.4zm-1.2 3h1.2v-1.4h-1.2v1.4zm2.9-1.6v-1.4h-1.2v1.4h1.2zm0 .2h-1.2v1.4h1.2v-1.4zm15.7 4.4v-3.6h-3.2l-.1-.2h3.3v-2.7c.6 0 .9.1.9.2s-.1.2-.4.2V21h2.2l.5-.6c.2.2.4.4.6.7l-.1.2H124v3.6h1.9l.4-.6c.2.2.4.4.6.7l-.1.2h-6.1l-.1-.2 2.9-.1z" fill="#231815"/></svg>