<svg xmlns="http://www.w3.org/2000/svg" viewBox="0 0 184.54 98.92"><g data-name="レイヤー 2"><path d="M82.09 14.61l-8.31 14.43-8.15-14.43L90.91 0l25.29 14.61H82.09" fill="#143e6c"/><path d="M90.91 58.42l25.29-14.61v-29.2H98.76l8.33 14.43-16.18 29.38z" fill="#21549d"/><path d="M65.63 14.61v29.2l25.28 14.61 8.34-15.12-17.16.18-16.46-28.87z" fill="#5188c0"/><path d="M16.49 78.62l.89-1.13q1.54 1.26 1.54 1.54c0 .11-.08.22-.24.32l-.57.38v16.76c0 1.32-.81 2-2.46 2a1 1 0 0 0-.76-1 13.35 13.35 0 0 0-2.47-.49v-.59a31.71 31.71 0 0 0 3.21.19c.62 0 .92-.13 1-.38a1 1 0 0 0 .05-.4v-16.6H1.43v19.22H0V77.81a15.52 15.52 0 0 1 1.67.81zm-7 6.83v7.37h2.94v-5.51c1.46.08 2.21.27 2.21.59s-.27.41-.89.65v6.29h-1.31v-1.4H5.16v1.92h-1.3v-8c1.51.08 2.27.3 2.27.62s-.32.38-1 .62v4.18h3v-7.33H2.54l-.22-.62h7.4A22.25 22.25 0 0 0 11.47 80c1.48.51 2.24.95 2.24 1.3s-.32.32-1 .38a19.68 19.68 0 0 1-2.19 3.16h2.67l1.08-1.48A13.18 13.18 0 0 1 15.71 85l-.32.49zm-4.74-5.34c2 1 3 2.13 3 3.21 0 .67-.3 1-.89 1-.43 0-.65-.24-.73-.7a5.26 5.26 0 0 0-1.7-3zm31.16 2.27a19.43 19.43 0 0 1-.4 2.81A23 23 0 0 1 40 88.53c1.05 1.05 1.57 1.89 1.57 2.54s-.24.84-.76.84c-.3 0-.57-.3-.92-.89a19.09 19.09 0 0 0-4.56-5.16 12.07 12.07 0 0 1-6.42 7.42l-.43-.54a12.32 12.32 0 0 0 6-10.37h-6.83v16.42h-1.43V81c.51.19.94.4 1.35.59l.3.16h6.63v-4.61c1.62 0 2.43.22 2.43.59 0 .19-.35.43-1 .7v3.35h7l.92-1.21c1.05.84 1.59 1.4 1.59 1.65s-.08.16-.22.27l-.65.38v13.46c0 1.27-.84 2-2.54 2.11a1.24 1.24 0 0 0-1-1.05c-.4-.13-1.43-.27-2.92-.51v-.68a35.74 35.74 0 0 0 4 .22.82.82 0 0 0 .94-.92V82.38zM120.2 82v-1.84H111l-.27-.59h9.45v-2.7c1.7.08 2.51.3 2.51.59s-.35.46-1.08.7v1.4h6.8l1.24-1.65a3.23 3.23 0 0 0 .46.38 12.18 12.18 0 0 1 1.3 1.43l-.24.43h-9.56V82h5.13l.89-1c.94.65 1.4 1.11 1.4 1.32s-.05.19-.27.32l-.49.35v3.29H127v-.76h-5.34v2.21H127l.92-1c1 .7 1.43 1.16 1.43 1.35s-.11.22-.27.32l-.54.4v1.75h1.24l1.11-1.55a9 9 0 0 1 1.4 1.75l-.27.43h-3.54v4.7h-1.38v-1.66h-5.48V97c0 1.21-.81 1.84-2.46 1.84a1.09 1.09 0 0 0-.73-1.05 11.74 11.74 0 0 0-2.46-.59v-.62a27.18 27.18 0 0 0 3.43.24c.54 0 .78-.24.78-.7v-1.9h-7.83l-.3-.59h8.13v-2.48h-9.74l-.22-.59h10v-2.22h-7.61l-.27-.62h7.88v-2.21h-5.37v.95h-1.35v-5.08c.67.22 1.21.46 1.62.62zm0 .59h-5.37v2.32h5.37zm1.43 0v2.32H127v-2.32zm0 8h5.48v-2.25h-5.48zm0 .59v2.48h5.48v-2.51zm21.09-4.92V96.6c0 1.3-.81 2-2.37 1.94a1.1 1.1 0 0 0-.76-1.05 8.33 8.33 0 0 0-1.81-.46v-.65c1.3.13 2.21.24 2.78.24s.76-.22.76-.62v-7.31a22.22 22.22 0 0 1-4.94 7l-.46-.46a26.83 26.83 0 0 0 5.07-9h-4.18l-.27-.59h8.39l.81-1.05c1 .94 1.51 1.57 1.51 1.81a.23.23 0 0 1-.19.19l-.7.24a34.49 34.49 0 0 1-2.16 3.81l-.59-.3a22.16 22.16 0 0 0 1.4-4.1zm1.4-6.88h-7l-.24-.62h7.26l.86-1.08c1 .92 1.54 1.49 1.54 1.73s-.11.22-.27.27l-.73.22a30.35 30.35 0 0 1-3.35 2.89.27.27 0 0 0 .14.11 2.12 2.12 0 0 1 .86 1.48c0 .57-.24.84-.7.84-.3 0-.54-.24-.76-.67a10.12 10.12 0 0 0-3.59-3.35l.3-.46a18.54 18.54 0 0 1 3.21 1.62 19.31 19.31 0 0 0 2.48-2.98zm1.54 11.93l-.24-.62h4.51a7.78 7.78 0 0 0 .05-1.05v-1.73c1.51.05 2.27.24 2.27.59 0 .16-.27.38-.86.54v.65a8.33 8.33 0 0 1 0 .92H155l.86-1c1 .73 1.46 1.21 1.46 1.43a.31.31 0 0 1-.22.27l-.54.38c-.08 3.1-.46 5.1-1.19 6a2.49 2.49 0 0 1-2.08.92c0-.65-.89-1.19-2.59-1.57v-.65a13.62 13.62 0 0 0 2.43.35 1.35 1.35 0 0 0 1.43-.92 16.71 16.71 0 0 0 .65-4.62h-3.89a8.76 8.76 0 0 1-6.32 7.72l-.32-.54a8.5 8.5 0 0 0 5.18-7.07zm.43-7.07l-.49-.46a17 17 0 0 0 3.62-6.88c1.38.38 2.05.73 2.05 1s-.32.35-1 .49c-.22.49-.46 1-.73 1.51h6l1.08-1.43a10.86 10.86 0 0 1 1.48 1.57l-.27.49h-2.05a18.29 18.29 0 0 1-2.83 4.35 16.78 16.78 0 0 0 5.32 2.54 3.46 3.46 0 0 0-1 1.35 18.53 18.53 0 0 1-5-3 18.5 18.5 0 0 1-6.27 3.57l-.38-.54a18.43 18.43 0 0 0 5.59-3.94 16 16 0 0 1-2.56-3.51 14.78 14.78 0 0 1-2.55 2.89zm3-3.51a16.51 16.51 0 0 0 2.91 3.35 13.58 13.58 0 0 0 2.21-3.54h-4.94zm21.17 2.67l.89-1.16c.94.78 1.43 1.29 1.43 1.54a.39.39 0 0 1-.22.27l-.51.35v7h-1.4v-1.6h-4.83c-.16 3.86-1.11 6.78-2.86 8.77l-.51-.38c1.35-2.21 2-5.29 2-9.31v-6.32a12.53 12.53 0 0 1 1.59.84zm.3-4l1.19-1.59a18 18 0 0 1 1.57 1.73l-.24.46h-9.74l-.22-.59zm-4.91 4.6v5.16h4.8V84zm10.1 2.4c-.13 5.53-1.78 9.66-5 12.36l-.46-.46c2.67-3 4-7 4-12.15v-6.91c.67.3 1.16.54 1.46.7a19.88 19.88 0 0 0 5.67-2.54c1.11.7 1.62 1.19 1.62 1.48s-.16.24-.49.24a5 5 0 0 1-.7-.08 43.42 43.42 0 0 1-6 1.54h-.11v5.22h6.1l1.16-1.59a11.47 11.47 0 0 1 1.54 1.79l-.27.46h-3.43v12.08h-1.43V86.42zM52.19 81.79a11 11 0 0 0 3-4.6c.58.24.88.43.88.56s-.14.15-.43.2a10.13 10.13 0 0 1-3.23 4zm6.52 2.49c-1.58.21-3.32.46-5.24.64-.08.25-.14.37-.22.37s-.29-.31-.41-.94h1.4A24.23 24.23 0 0 0 56 80c.63.23.95.41.95.54s-.15.15-.46.19a26.57 26.57 0 0 1-1.84 3.6h.53c1.2-.07 2.39-.17 3.58-.28a10.46 10.46 0 0 0-1.33-1.82l.17-.18a9.28 9.28 0 0 1 1.91 2 2 2 0 0 1 .43 1c0 .25-.11.39-.33.39s-.26-.15-.39-.46a4.39 4.39 0 0 0-.31-.65zm-1.42-7.15A10.89 10.89 0 0 0 60.88 81a2.09 2.09 0 0 0-.55.61A11.27 11.27 0 0 1 57 77.23zm8.49 1.63l.48-.59a5.25 5.25 0 0 1 .54.56l.09.11-.1.18h-3.73l-.1-.25zM65.34 80l.46-.57a4 4 0 0 1 .57.65l-.11.17h-2.72l-.09-.25zm0 1.23l.46-.57a4.18 4.18 0 0 1 .56.64l-.13.19h-2.69l-.09-.25zm.07 1.27l.36-.43c.39.32.58.52.58.59s0 .08-.11.13l-.21.14v2.7h-.54V85h-1.44v.64h-.55v-3.45a5.62 5.62 0 0 1 .64.32zm-.18-5l.5-.58a6.69 6.69 0 0 1 .58.64l-.12.19h-2.51l-.07-.24zm-1.19 5.23v2h1.45v-2zm3.43-.21v.44a3.9 3.9 0 0 1-.24 1.51c-.13.33-.3.48-.48.48s-.36-.1-.36-.32a.56.56 0 0 1 .19-.34 3.17 3.17 0 0 0 .64-1.84zM67 77.65l-.1-.24h3.75L71 77c.4.32.58.52.58.6a.15.15 0 0 1-.1.14l-.22.13v.34a7.47 7.47 0 0 1-.26 2.63 1 1 0 0 1-.92.51.41.41 0 0 0-.27-.39 4.85 4.85 0 0 0-.86-.21v-.23a8 8 0 0 0 1.09.1.49.49 0 0 0 .54-.43 12.75 12.75 0 0 0 .14-2.2v-.34h-1.54A6.72 6.72 0 0 1 69 79c.57.28.86.53.86.78s-.09.29-.27.29-.2-.08-.36-.24-.22-.2-.37-.33a3.93 3.93 0 0 1-2 2.11l-.15-.2a4.21 4.21 0 0 0 1.74-2.22 6.87 6.87 0 0 0-1.2-.56l.09-.21a10.45 10.45 0 0 1 1.21.36 6.24 6.24 0 0 0 .12-1.17zm3.51 6.13a3.08 3.08 0 0 0 .08.89.28.28 0 0 0 .27.18c0 .26-.09.44-.24.51a3.37 3.37 0 0 1-1.09.11 3.88 3.88 0 0 1-1.09-.1.53.53 0 0 1-.29-.52v-2.46c.58 0 .88.11.88.23s-.1.15-.32.24v1.76c0 .15 0 .24.12.29a2.14 2.14 0 0 0 .56 0c.37 0 .58-.07.65-.19a3.34 3.34 0 0 0 .21-1.08zm-1.95-2.5a3.36 3.36 0 0 1 1.19.63.81.81 0 0 1 .34.57.29.29 0 0 1-.32.33c-.13 0-.23-.1-.32-.29a2.36 2.36 0 0 0-1-1.08zm2.06 1a4 4 0 0 1 1.27 1.39 1.23 1.23 0 0 1 .14.53c0 .3-.12.45-.35.45s-.26-.14-.31-.41a4.52 4.52 0 0 0-.9-1.8zm8.07-5a9.54 9.54 0 0 0 4.29 3 1.74 1.74 0 0 0-.51.62 10.4 10.4 0 0 1-4-3.46s0 .08-.07.11a9.24 9.24 0 0 1-4.26 3.83l-.14-.2a9.56 9.56 0 0 0 4.11-4.51c.6.11.91.23.91.36s-.14.13-.43.17zm-1.32 5.11h-2.7l-.13-.24h6.62l.54-.65.1.1a6.14 6.14 0 0 1 .6.59l-.12.2h-4.16a19.34 19.34 0 0 1-1.19 2.12 1 1 0 0 1-.08.11h.56c.81 0 1.85-.11 3.09-.19h.31a7.54 7.54 0 0 0-1.37-1.13l.14-.2a7.1 7.1 0 0 1 2.23 1.47 1.24 1.24 0 0 1 .41.75c0 .25-.11.37-.34.37a.33.33 0 0 1-.3-.21 3.61 3.61 0 0 0-.54-.79h-.21c-1.69.24-3.49.42-5.39.58-.06.23-.1.35-.18.35s-.31-.31-.45-.94h1.68a13.39 13.39 0 0 0 .87-2.3zm2.22-2.1l.47-.56c.25.21.47.42.66.61l-.12.2h-4.39l-.1-.24zm8.84-1.53l.51-.62a4.19 4.19 0 0 1 .65.69l-.09.17h-4.37l-.1-.25zM87.86 80l.47-.6a6.16 6.16 0 0 1 .6.68l-.11.17h-3.08l-.09-.25zm0 1.24l.47-.63a5.18 5.18 0 0 1 .6.68l-.12.2h-3.06l-.1-.25zm.2 1.27l.37-.44c.38.33.58.53.58.62s0 .09-.1.12l-.21.13v2.7h-.57V85h-1.87v.64h-.57v-3.42a5.29 5.29 0 0 1 .67.3zm-.32-5l.48-.6a8.9 8.9 0 0 1 .62.67l-.11.18h-2.85l-.08-.24zm-1.47 5.25v2h1.87v-2zm5.47-2.11v5h-.6v-5h-1.96l-.12-.24h2.07V77c.68 0 1 .12 1 .25s-.14.19-.43.3v2.86h1.09l.52-.7c.17.19.38.43.64.75l-.11.2zm8.38 4.03V80.4h-3.75l-.11-.25h3.86v-3.09q1.09 0 1.09.26c0 .09-.15.19-.46.29v2.54h2.63l.58-.76a8.74 8.74 0 0 1 .73.8l-.11.21h-3.83v4.28H103l.53-.75a6.76 6.76 0 0 1 .68.78l-.11.21h-7.27l-.1-.24zm-46.58 9.6A10.51 10.51 0 0 1 52.11 97l-.23-.14a12.33 12.33 0 0 0 1.62-4h-1.42l-.08-.29h1.54v-1.63c-.43.1-.89.18-1.4.25l-.08-.19a9.53 9.53 0 0 0 2.87-1.07c.43.25.65.45.65.56s-.06.09-.17.09a1.49 1.49 0 0 1-.3 0c-.36.12-.7.21-1 .29v1.76h.56l.45-.63a4.55 4.55 0 0 1 .58.71l-.11.18h-1.5v.86c1 .56 1.45 1.11 1.45 1.63 0 .22-.1.34-.3.34s-.28-.12-.35-.36a3.45 3.45 0 0 0-.8-1.3v4.65h-.55zm6.15.55H59v2.82c0 .21.19.31.57.31s.62-.11.68-.32a6.15 6.15 0 0 0 .19-1.44l.26.11a4.37 4.37 0 0 0 .12 1.4.29.29 0 0 0 .29.15.5.5 0 0 1-.29.51 4.48 4.48 0 0 1-1.22.11 2.39 2.39 0 0 1-1-.13.66.66 0 0 1-.2-.55v-3h-.76a4.85 4.85 0 0 1-.52 2.33A3.57 3.57 0 0 1 55 98.71l-.15-.23a3.39 3.39 0 0 0 1.95-2.06 5.57 5.57 0 0 0 .2-1.59h-.5v.54h-.57v-3.49a6.17 6.17 0 0 1 .66.32h1.81a13.06 13.06 0 0 0 .87-2.38c.62.23.91.41.91.53s-.14.13-.42.15a12.87 12.87 0 0 1-1 1.69h.88l.35-.46c.42.32.63.53.63.6s0 .08-.1.12l-.24.17v2.67h-.55zm-3.41-5c.9.57 1.34 1.16 1.34 1.76 0 .26-.11.4-.34.4s-.25-.12-.3-.4a3.3 3.3 0 0 0-.86-1.59zm3.41 4.71v-2.09H56.5v2.15zm16.11-.93v2.33a13.55 13.55 0 0 0 1.45-.53l.11.25a24.75 24.75 0 0 1-2.81 1.23c0 .28-.09.4-.17.4s-.31-.29-.5-.85c.5-.11 1-.22 1.35-.34v-2.5h-1.07l-.09-.25h1.18V91h-1.17l-.1-.25h2.24l.47-.61a4.81 4.81 0 0 1 .63.68l-.1.18H75.8v2.35h.37l.43-.63a5.82 5.82 0 0 1 .56.69l-.1.19zm5.69-3.2l.4-.46c.4.33.59.55.59.64s0 .08-.09.11l-.24.15v4h-.56v-.38h-1.45v1.66h1.46l.48-.61a6.27 6.27 0 0 1 .64.68l-.1.17h-2.48V98h1.78l.51-.65a6.67 6.67 0 0 1 .67.69l-.11.2h-6.33l-.1-.24h3v-1.67h-2.2l-.1-.24h2.3v-1.66h-1.37v.64h-.56v-5h.07l.53.25zm-1.93.24h-1.37v1.61h1.38zm-1.38 3.53h1.38v-1.67h-1.37zm3.4-1.93v-1.6h-1.44v1.61zm0 .25h-1.44v1.67h1.45zm18.54 5.18V93.4h-3.75l-.11-.25h3.86v-3.09q1.09 0 1.09.26c0 .09-.15.19-.46.29v2.54h2.63l.58-.76a8.74 8.74 0 0 1 .73.8l-.11.21h-3.83v4.28H103l.53-.75a6.76 6.76 0 0 1 .68.78l-.11.21h-7.27l-.1-.24z" fill="#231815"/></g></svg>