<svg xmlns="http://www.w3.org/2000/svg" viewBox="0 0 130 24"><path d="M3.6 18.2c-1-1.1-1.5-2.9-1.5-5.8 0-2.7.6-4.7 1.8-5.9.7-.7 1.7-1.1 3.1-1.1 1.4 0 2.4.5 3.2 1.2 1.2 1.2 1.8 3.2 1.8 5.9 0 2.8-.6 4.6-1.5 5.8-1 1.1-2.1 1.5-3.4 1.5-.8-.2-2.2-.2-3.5-1.6zm0-5.8c0 3 .4 6.5 3.3 6.5 2.8 0 3.3-3.1 3.3-6.5 0-3-.6-4.6-1.3-5.5-.5-.6-1.2-.8-1.9-.8-2.4 0-3.4 2.2-3.4 6.3zm10.6-3.9l.6-2.9h8.4l.2.4c-3.1 3.9-4.8 9-4.9 13.6h-1.7c.2-5.9 3.3-10.8 4.9-12.7h-4.9c-1.3 0-1.5.2-1.9 1.7h-.7zm19.1 3.9c-.7 1.2-2 1.9-3.5 1.9-2.8 0-4.3-1.9-4.3-4.3s1.4-4.6 4.6-4.6c2.5 0 4.8 1.9 4.8 6.7 0 3.8-1.2 7.6-5 7.6-2.8 0-4-1.6-4-2.6 0-.5.2-.8.6-.8.5 0 .6.2 1 1 .4.9 1 1.6 2.4 1.6 3.4 0 3.5-5.3 3.4-6.5zm-3.1 1.2c1.8 0 3.1-1.5 3.1-3.2 0-2-1.1-4.3-3-4.3s-3 1.6-3 3.9c-.1.9.2 3.6 2.9 3.6zm6.7.6h4.3v.9h-4.3v-.9zm15.4 2.3l-.6 2.9h-8.3l-.2-.4c.9-3.9 3.2-5.7 5-6.9 1.5-1 2.3-1.9 2.3-3.4 0-1.3-.5-2.6-2.8-2.6-1.1 0-2.2.4-2.8 2.1-.1.6-.3.8-.7.8-.3 0-.6-.3-.6-.8 0-1.1 1.3-2.8 4.2-2.8 3.4 0 4.4 2 4.4 3.4 0 1.7-1.2 2.8-2.3 3.6-2.5 1.7-4.5 3-5.4 5.8h5.4c1.2 0 1.4-.2 1.9-1.8l.5.1zm11.7 0l-.6 2.9h-8.3l-.2-.4c.9-3.9 3.2-5.7 5-6.9 1.5-1 2.3-1.9 2.3-3.4 0-1.3-.5-2.6-2.8-2.6-1.1 0-2.2.4-2.8 2.1-.1.6-.3.8-.8.8-.3 0-.6-.3-.6-.8 0-1.1 1.3-2.8 4.2-2.8 3.4 0 4.4 2 4.4 3.4 0 1.7-1.2 2.8-2.3 3.6-2.5 1.7-4.5 3-5.4 5.8h5.4c1.2 0 1.4-.2 1.9-1.8l.6.1zm8.3-.9h-5.8V15l6.2-9.6h1.1v9.3h1.7l-.1.8h-1.6v1.7c0 1.4.1 1.5 1.5 1.5v.6h-4.8v-.6c1.7 0 1.8-.2 1.8-1.5v-1.6zm0-8.2c-.3.4-.6 1.1-1.1 1.8l-3.5 5.5h4.7V9.3c-.1-.5-.1-1.2-.1-1.9zm5.4 6.8H82v.9h-4.3v-.9zm10.4-5.7c0-.8-.1-1.1-.5-1.1-.3 0-.7.2-1.3.4l-.2-.6c1.4-.6 2.4-1.1 3.2-1.7l.2.1v11.6c0 1.4.1 1.5 1.8 1.5v.6h-5.2v-.6c1.8 0 1.9-.1 1.9-1.5V8.5zm9.2 4.1c.7-1.2 1.9-1.9 3.5-1.9 2.6 0 4.3 1.8 4.3 4.3 0 2.7-1.6 4.7-4.6 4.7-2.6 0-4.7-1.9-4.7-6.9 0-3.4 1.1-7.4 5-7.4 2.5 0 3.7 1.5 3.7 2.5 0 .5-.2.8-.6.8-.5 0-.7-.3-1-1-.3-1-1.1-1.6-2.3-1.6-2.5 0-3.4 3.5-3.3 6.5zm3.1-1.2c-1.9 0-3.1 1.6-3.1 3.1 0 2.1 1 4.4 3 4.4 2.1 0 3-1.9 3-3.9.1-.9-.3-3.6-2.9-3.6zm13 .4c1.7.7 3.3 2.1 3.3 3.9 0 2-1.4 3.9-4.8 3.9-2.5 0-4.7-1.3-4.7-3.8 0-1.1.7-2.6 3.1-3.6-1.9-.8-2.7-2.1-2.7-3.6s1.2-3.2 4.3-3.2c3 0 4.3 1.6 4.3 3.3 0 1.5-1.1 2.5-2.8 3.1zM115 16c0-.7-.4-1.5-1.1-2.1-.6-.5-1.2-.8-2.6-1.3-1.1.4-2.6 1.3-2.6 3.2 0 1.8 1.2 3.1 3.2 3.1 1.8 0 3.1-1 3.1-2.9zm-5.9-7.6c0 1.7 1.6 2.4 3.2 3 1.3-.5 2.4-1.2 2.4-2.8 0-1-.5-2.5-2.8-2.5-1.9 0-2.8 1.1-2.8 2.3zm19 8.1l-.6 2.9h-8.3l-.2-.4c.9-3.9 3.2-5.7 5-6.9 1.5-1 2.3-1.9 2.3-3.4 0-1.3-.5-2.6-2.8-2.6-1.1 0-2.2.4-2.8 2.1-.1.6-.3.8-.7.8-.3 0-.6-.3-.6-.8 0-1.1 1.3-2.8 4.2-2.8 3.4 0 4.4 2 4.4 3.4 0 1.7-1.2 2.8-2.3 3.6-2.5 1.7-4.5 3-5.4 5.8h5.4c1.2 0 1.4-.2 1.9-1.8l.5.1z" fill="#fff"/></svg>